%FSLAX45Y45*%
G04 Gerber Fmt 4.5, Leading zero omitted, Abs format (unit mm)*
G04 Created by KiCad (PCBNEW (2016-05-02 BZR 6765, Git 2f87409)-product) date 2016-05-10 21:51:13*
%MOMM*%
%LPD*%
G01*
G04 APERTURE LIST*
%ADD10C,0.127000*%
%ADD11C,0.150000*%
%ADD12C,0.200000*%
%ADD13C,0.300000*%
G04 APERTURE END LIST*
D10*
D11*
X15620000Y-8700000D02*
X15461000Y-8699000D01*
X16020000Y-8700000D02*
X16161000Y-8699000D01*
X8100000Y-11900000D02*
X9100000Y-11900000D01*
X9100000Y-11700000D02*
X8100000Y-11700000D01*
X9500000Y-11700000D02*
X10691000Y-11700000D01*
X12840000Y-11900000D02*
X9500000Y-11900000D01*
X13240000Y-11900000D02*
X13359000Y-11900000D01*
X15640000Y-11700000D02*
X13240000Y-11700000D01*
X15640000Y-11900000D02*
X15509000Y-11899000D01*
X16040000Y-11900000D02*
X17520000Y-11900000D01*
X17520000Y-11700000D02*
X16040000Y-11700000D01*
X17920000Y-11700000D02*
X18100000Y-11700000D01*
X18100000Y-11900000D02*
X17920000Y-11900000D01*
X18100000Y-8700000D02*
X17820000Y-8700000D01*
X17420000Y-8700000D02*
X17221000Y-8699000D01*
X9500000Y-8700000D02*
X12840000Y-8700000D01*
X8100000Y-8700000D02*
X9100000Y-8700000D01*
X9100000Y-8500000D02*
X8100000Y-8500000D01*
X9500000Y-8500000D02*
X10691000Y-8498000D01*
X15620000Y-8500000D02*
X13211000Y-8500000D01*
X17420000Y-8500000D02*
X16020000Y-8500000D01*
X18100000Y-8500000D02*
X17820000Y-8500000D01*
X17820000Y-8500000D02*
G75*
G03X17820000Y-8700000I0J-100000D01*
G01*
X17420000Y-8700000D02*
G75*
G03X17420000Y-8500000I0J100000D01*
G01*
X17920000Y-11700000D02*
G75*
G03X17920000Y-11900000I0J-100000D01*
G01*
X17520000Y-11900000D02*
G75*
G03X17520000Y-11700000I0J100000D01*
G01*
X16040000Y-11700000D02*
G75*
G03X16040000Y-11900000I0J-100000D01*
G01*
X15640000Y-11900000D02*
G75*
G03X15640000Y-11700000I0J100000D01*
G01*
X16020000Y-8500000D02*
G75*
G03X16020000Y-8700000I0J-100000D01*
G01*
X15620000Y-8700000D02*
G75*
G03X15620000Y-8500000I0J100000D01*
G01*
X13110000Y-8700000D02*
X13110000Y-8600000D01*
X13210000Y-8500000D02*
G75*
G03X13110000Y-8600000I0J-100000D01*
G01*
X12840000Y-8700000D02*
G75*
G03X12840000Y-8500000I0J100000D01*
G01*
X13240000Y-11700000D02*
G75*
G03X13240000Y-11900000I0J-100000D01*
G01*
X12840000Y-11900000D02*
G75*
G03X12840000Y-11700000I0J100000D01*
G01*
X9500000Y-11700000D02*
G75*
G03X9500000Y-11900000I0J-100000D01*
G01*
X9500000Y-8500000D02*
G75*
G03X9500000Y-8700000I0J-100000D01*
G01*
X9100000Y-8700000D02*
G75*
G03X9100000Y-8500000I0J100000D01*
G01*
X9100000Y-11900000D02*
G75*
G03X9100000Y-11700000I0J100000D01*
G01*
X13861010Y-7798000D02*
G75*
G03X13962000Y-7808000I50990J0D01*
G01*
X15361971Y-7807806D02*
G75*
G03X15461000Y-7798000I49029J9806D01*
G01*
X16161000Y-5958000D02*
G75*
G03X16261000Y-5958000I50000J0D01*
G01*
X16781000Y-5958000D02*
G75*
G03X16881000Y-5958000I50000J0D01*
G01*
X10691000Y-8388000D02*
X10691000Y-8498000D01*
X12741000Y-8288000D02*
X10791000Y-8288000D01*
X12841000Y-8388000D02*
X12840000Y-8500000D01*
X12841000Y-8388000D02*
G75*
G03X12741000Y-8288000I-100000J0D01*
G01*
X10791000Y-8288000D02*
G75*
G03X10691000Y-8388000I0J-100000D01*
G01*
X13211000Y-5498000D02*
X13861000Y-5498000D01*
X13111000Y-6018000D02*
X13111000Y-5498000D01*
X13211000Y-6018000D02*
X13211000Y-5498000D01*
X13111000Y-6018000D02*
G75*
G03X13211000Y-6018000I50000J0D01*
G01*
X16161000Y-5498000D02*
X15461000Y-5498000D01*
X13861000Y-7798000D02*
X13861000Y-5498000D01*
X15362000Y-7808000D02*
X13962000Y-7808000D01*
X15461000Y-5498000D02*
X15461000Y-7798000D01*
X16881000Y-5498000D02*
X17121000Y-5498000D01*
X16161000Y-5958000D02*
X16161000Y-5498000D01*
X16781000Y-5958000D02*
X16261000Y-5958000D01*
X16881000Y-5498000D02*
X16881000Y-5958000D01*
X18100000Y-5499000D02*
X17221000Y-5498000D01*
X17221000Y-5828000D02*
X17221000Y-5498000D01*
X17121000Y-5828000D02*
X17121000Y-5498000D01*
X17221000Y-6648000D02*
X17221000Y-6088000D01*
X17121000Y-6088000D02*
X17121000Y-6648000D01*
X17131000Y-7158000D02*
X17131000Y-7928000D01*
X17231000Y-7928000D02*
X17231000Y-7158000D01*
X17131000Y-7928000D02*
G75*
G03X17231000Y-7928000I50000J0D01*
G01*
X17231000Y-7158000D02*
G75*
G03X17131000Y-7158000I-50000J0D01*
G01*
X17121000Y-5828000D02*
G75*
G03X17221000Y-5828000I50000J0D01*
G01*
X17221000Y-6088000D02*
G75*
G03X17121000Y-6088000I-50000J0D01*
G01*
X17121000Y-6648000D02*
G75*
G03X17221000Y-6648000I50000J0D01*
G01*
X8781000Y-7548000D02*
G75*
G03X8881000Y-7648000I100000J0D01*
G01*
X9381000Y-7648000D02*
G75*
G03X9481000Y-7548000I0J100000D01*
G01*
X9481000Y-6448000D02*
G75*
G03X9381000Y-6348000I-100000J0D01*
G01*
X8881000Y-6348000D02*
G75*
G03X8781000Y-6448000I0J-100000D01*
G01*
X8781000Y-7548000D02*
X8781000Y-6448000D01*
X9381000Y-7648000D02*
X8881000Y-7648000D01*
X9481000Y-6448000D02*
X9481000Y-7548000D01*
X8881000Y-6348000D02*
X9381000Y-6348000D01*
X8100000Y-5499000D02*
X8100000Y-8499000D01*
X13111000Y-5498000D02*
X8100000Y-5499000D01*
X18100000Y-8499000D02*
X18100000Y-5499000D01*
X13861010Y-10999000D02*
G75*
G03X13962000Y-11009000I50990J0D01*
G01*
X15361971Y-11008806D02*
G75*
G03X15461000Y-10999000I49029J9806D01*
G01*
X16161000Y-9159000D02*
G75*
G03X16261000Y-9159000I50000J0D01*
G01*
X16781000Y-9159000D02*
G75*
G03X16881000Y-9159000I50000J0D01*
G01*
X10691000Y-11589000D02*
X10691000Y-11700000D01*
X12741000Y-11489000D02*
X10791000Y-11489000D01*
X12841000Y-11589000D02*
X12841000Y-11699000D01*
X12841000Y-11589000D02*
G75*
G03X12741000Y-11489000I-100000J0D01*
G01*
X10791000Y-11489000D02*
G75*
G03X10691000Y-11589000I0J-100000D01*
G01*
X13211000Y-8699000D02*
X13861000Y-8699000D01*
X13111000Y-9219000D02*
X13111000Y-8699000D01*
X13211000Y-9219000D02*
X13211000Y-8699000D01*
X13111000Y-9219000D02*
G75*
G03X13211000Y-9219000I50000J0D01*
G01*
X13861000Y-10999000D02*
X13861000Y-8699000D01*
X15362000Y-11009000D02*
X13962000Y-11009000D01*
X15461000Y-8699000D02*
X15461000Y-10999000D01*
X16881000Y-8699000D02*
X17121000Y-8699000D01*
X16161000Y-9159000D02*
X16161000Y-8699000D01*
X16781000Y-9159000D02*
X16261000Y-9159000D01*
X16881000Y-8699000D02*
X16881000Y-9159000D01*
X17221000Y-9029000D02*
X17221000Y-8699000D01*
X17121000Y-9029000D02*
X17121000Y-8699000D01*
X17221000Y-9849000D02*
X17221000Y-9289000D01*
X17121000Y-9289000D02*
X17121000Y-9849000D01*
X17131000Y-10359000D02*
X17131000Y-11129000D01*
X17231000Y-11129000D02*
X17231000Y-10359000D01*
X17131000Y-11129000D02*
G75*
G03X17231000Y-11129000I50000J0D01*
G01*
X17231000Y-10359000D02*
G75*
G03X17131000Y-10359000I-50000J0D01*
G01*
X17121000Y-9029000D02*
G75*
G03X17221000Y-9029000I50000J0D01*
G01*
X17221000Y-9289000D02*
G75*
G03X17121000Y-9289000I-50000J0D01*
G01*
X17121000Y-9849000D02*
G75*
G03X17221000Y-9849000I50000J0D01*
G01*
X8781000Y-10749000D02*
G75*
G03X8881000Y-10849000I100000J0D01*
G01*
X9381000Y-10849000D02*
G75*
G03X9481000Y-10749000I0J100000D01*
G01*
X9481000Y-9649000D02*
G75*
G03X9381000Y-9549000I-100000J0D01*
G01*
X8881000Y-9549000D02*
G75*
G03X8781000Y-9649000I0J-100000D01*
G01*
X8781000Y-10749000D02*
X8781000Y-9649000D01*
X9381000Y-10849000D02*
X8881000Y-10849000D01*
X9481000Y-9649000D02*
X9481000Y-10749000D01*
X8881000Y-9549000D02*
X9381000Y-9549000D01*
X8100000Y-8700000D02*
X8100000Y-11700000D01*
X18100000Y-11700000D02*
X18100000Y-8700000D01*
X12338990Y-12602000D02*
G75*
G03X12238000Y-12592000I-50990J0D01*
G01*
X10838029Y-12592194D02*
G75*
G03X10739000Y-12602000I-49029J-9806D01*
G01*
X10039000Y-14442000D02*
G75*
G03X9939000Y-14442000I-50000J0D01*
G01*
X9419000Y-14442000D02*
G75*
G03X9319000Y-14442000I-50000J0D01*
G01*
X15509000Y-12012000D02*
X15509000Y-11899000D01*
X13459000Y-12112000D02*
X15409000Y-12112000D01*
X13359000Y-12012000D02*
X13359000Y-11900000D01*
X13359000Y-12012000D02*
G75*
G03X13459000Y-12112000I100000J0D01*
G01*
X15409000Y-12112000D02*
G75*
G03X15509000Y-12012000I0J100000D01*
G01*
X12989000Y-14902000D02*
X12339000Y-14902000D01*
X13089000Y-14382000D02*
X13089000Y-14902000D01*
X12989000Y-14382000D02*
X12989000Y-14902000D01*
X13089000Y-14382000D02*
G75*
G03X12989000Y-14382000I-50000J0D01*
G01*
X10039000Y-14902000D02*
X10739000Y-14902000D01*
X12339000Y-12602000D02*
X12339000Y-14902000D01*
X10838000Y-12592000D02*
X12238000Y-12592000D01*
X10739000Y-14902000D02*
X10739000Y-12602000D01*
X9319000Y-14902000D02*
X9079000Y-14902000D01*
X10039000Y-14442000D02*
X10039000Y-14902000D01*
X9419000Y-14442000D02*
X9939000Y-14442000D01*
X9319000Y-14902000D02*
X9319000Y-14442000D01*
X8100000Y-14901000D02*
X8979000Y-14902000D01*
X8979000Y-14572000D02*
X8979000Y-14902000D01*
X9079000Y-14572000D02*
X9079000Y-14902000D01*
X8979000Y-13752000D02*
X8979000Y-14312000D01*
X9079000Y-14312000D02*
X9079000Y-13752000D01*
X9069000Y-13242000D02*
X9069000Y-12472000D01*
X8969000Y-12472000D02*
X8969000Y-13242000D01*
X9069000Y-12472000D02*
G75*
G03X8969000Y-12472000I-50000J0D01*
G01*
X8969000Y-13242000D02*
G75*
G03X9069000Y-13242000I50000J0D01*
G01*
X9079000Y-14572000D02*
G75*
G03X8979000Y-14572000I-50000J0D01*
G01*
X8979000Y-14312000D02*
G75*
G03X9079000Y-14312000I50000J0D01*
G01*
X9079000Y-13752000D02*
G75*
G03X8979000Y-13752000I-50000J0D01*
G01*
X17419000Y-12852000D02*
G75*
G03X17319000Y-12752000I-100000J0D01*
G01*
X16819000Y-12752000D02*
G75*
G03X16719000Y-12852000I0J-100000D01*
G01*
X16719000Y-13952000D02*
G75*
G03X16819000Y-14052000I100000J0D01*
G01*
X17319000Y-14052000D02*
G75*
G03X17419000Y-13952000I0J100000D01*
G01*
X17419000Y-12852000D02*
X17419000Y-13952000D01*
X16819000Y-12752000D02*
X17319000Y-12752000D01*
X16719000Y-13952000D02*
X16719000Y-12852000D01*
X17319000Y-14052000D02*
X16819000Y-14052000D01*
X18100000Y-14901000D02*
X18100000Y-11901000D01*
X13089000Y-14902000D02*
X18100000Y-14901000D01*
X8100000Y-11901000D02*
X8100000Y-14901000D01*
D12*
X8201000Y-6888000D02*
X8241000Y-6928000D01*
X8241000Y-6888000D02*
X8201000Y-6928000D01*
X8201000Y-10089000D02*
X8241000Y-10129000D01*
X8241000Y-10089000D02*
X8201000Y-10129000D01*
X8256000Y-13073000D02*
X8296000Y-13113000D01*
X8296000Y-13073000D02*
X8256000Y-13113000D01*
X8270000Y-13671000D02*
X8310000Y-13711000D01*
X8310000Y-13671000D02*
X8270000Y-13711000D01*
X8345665Y-13367628D02*
X8385665Y-13407628D01*
X8385665Y-13367628D02*
X8345665Y-13407628D01*
X8347001Y-12432930D02*
X8387001Y-12472930D01*
X8387001Y-12432930D02*
X8347001Y-12472930D01*
X8350150Y-13091045D02*
X8390150Y-13131045D01*
X8390150Y-13091045D02*
X8350150Y-13131045D01*
X8371000Y-7698000D02*
X8411000Y-7738000D01*
X8411000Y-7698000D02*
X8371000Y-7738000D01*
X8371000Y-10899000D02*
X8411000Y-10939000D01*
X8411000Y-10899000D02*
X8371000Y-10939000D01*
X8420000Y-13331000D02*
X8460000Y-13371000D01*
X8460000Y-13331000D02*
X8420000Y-13371000D01*
X8482607Y-13380806D02*
X8522607Y-13420806D01*
X8522607Y-13380806D02*
X8482607Y-13420806D01*
X8500000Y-13661000D02*
X8540000Y-13701000D01*
X8540000Y-13661000D02*
X8500000Y-13701000D01*
X8510000Y-13061000D02*
X8550000Y-13101000D01*
X8550000Y-13061000D02*
X8510000Y-13101000D01*
X8541000Y-6258000D02*
X8581000Y-6298000D01*
X8581000Y-6258000D02*
X8541000Y-6298000D01*
X8541000Y-6968000D02*
X8581000Y-7008000D01*
X8581000Y-6968000D02*
X8541000Y-7008000D01*
X8541000Y-9459000D02*
X8581000Y-9499000D01*
X8581000Y-9459000D02*
X8541000Y-9499000D01*
X8541000Y-10169000D02*
X8581000Y-10209000D01*
X8581000Y-10169000D02*
X8541000Y-10209000D01*
X8590000Y-12811000D02*
X8630000Y-12851000D01*
X8630000Y-12811000D02*
X8590000Y-12851000D01*
X8600000Y-11991000D02*
X8640000Y-12031000D01*
X8640000Y-11991000D02*
X8600000Y-12031000D01*
X8601000Y-7638000D02*
X8641000Y-7678000D01*
X8641000Y-7638000D02*
X8601000Y-7678000D01*
X8601000Y-10839000D02*
X8641000Y-10879000D01*
X8641000Y-10839000D02*
X8601000Y-10879000D01*
X8765000Y-13253000D02*
X8805000Y-13293000D01*
X8805000Y-13253000D02*
X8765000Y-13293000D01*
X8774000Y-12354000D02*
X8814000Y-12394000D01*
X8814000Y-12354000D02*
X8774000Y-12394000D01*
X9011000Y-8188000D02*
X9051000Y-8228000D01*
X9051000Y-8188000D02*
X9011000Y-8228000D01*
X9011000Y-11389000D02*
X9051000Y-11429000D01*
X9051000Y-11389000D02*
X9011000Y-11429000D01*
X9103000Y-12098000D02*
X9143000Y-12138000D01*
X9143000Y-12098000D02*
X9103000Y-12138000D01*
X9105000Y-12182000D02*
X9145000Y-12222000D01*
X9145000Y-12182000D02*
X9105000Y-12222000D01*
X9149000Y-13762000D02*
X9189000Y-13802000D01*
X9189000Y-13762000D02*
X9149000Y-13802000D01*
X9189000Y-13882000D02*
X9229000Y-13922000D01*
X9229000Y-13882000D02*
X9189000Y-13922000D01*
X9190000Y-14421000D02*
X9230000Y-14461000D01*
X9230000Y-14421000D02*
X9190000Y-14461000D01*
X9209000Y-12942000D02*
X9249000Y-12982000D01*
X9249000Y-12942000D02*
X9209000Y-12982000D01*
X9239001Y-13043000D02*
X9279001Y-13083000D01*
X9279001Y-13043000D02*
X9239001Y-13083000D01*
X9249001Y-13594183D02*
X9289001Y-13634183D01*
X9289001Y-13594183D02*
X9249001Y-13634183D01*
X9295000Y-12433000D02*
X9335000Y-12473000D01*
X9335000Y-12433000D02*
X9295000Y-12473000D01*
X9301000Y-8048000D02*
X9341000Y-8088000D01*
X9341000Y-8048000D02*
X9301000Y-8088000D01*
X9301000Y-11249000D02*
X9341000Y-11289000D01*
X9341000Y-11249000D02*
X9301000Y-11289000D01*
X9326202Y-13615164D02*
X9366202Y-13655164D01*
X9366202Y-13615164D02*
X9326202Y-13655164D01*
X9379000Y-12942000D02*
X9419000Y-12982000D01*
X9419000Y-12942000D02*
X9379000Y-12982000D01*
X9461000Y-6210501D02*
X9501000Y-6250501D01*
X9501000Y-6210501D02*
X9461000Y-6250501D01*
X9461000Y-9411501D02*
X9501000Y-9451501D01*
X9501000Y-9411501D02*
X9461000Y-9451501D01*
X9496392Y-13958499D02*
X9536392Y-13998499D01*
X9536392Y-13958499D02*
X9496392Y-13998499D01*
X9500000Y-13861000D02*
X9540000Y-13901000D01*
X9540000Y-13861000D02*
X9500000Y-13901000D01*
X9520000Y-14181000D02*
X9560000Y-14221000D01*
X9560000Y-14181000D02*
X9520000Y-14221000D01*
X9539000Y-12672000D02*
X9579000Y-12712000D01*
X9579000Y-12672000D02*
X9539000Y-12712000D01*
X9548000Y-12566000D02*
X9588000Y-12606000D01*
X9588000Y-12566000D02*
X9548000Y-12606000D01*
X9549000Y-12162000D02*
X9589000Y-12202000D01*
X9589000Y-12162000D02*
X9549000Y-12202000D01*
X9629000Y-13541000D02*
X9669000Y-13581000D01*
X9669000Y-13541000D02*
X9629000Y-13581000D01*
X9654000Y-12672000D02*
X9694000Y-12712000D01*
X9694000Y-12672000D02*
X9654000Y-12712000D01*
X9655000Y-12566000D02*
X9695000Y-12606000D01*
X9695000Y-12566000D02*
X9655000Y-12606000D01*
X9711000Y-6198000D02*
X9751000Y-6238000D01*
X9751000Y-6198000D02*
X9711000Y-6238000D01*
X9711000Y-8198000D02*
X9751000Y-8238000D01*
X9751000Y-8198000D02*
X9711000Y-8238000D01*
X9711000Y-9399000D02*
X9751000Y-9439000D01*
X9751000Y-9399000D02*
X9711000Y-9439000D01*
X9711000Y-11399000D02*
X9751000Y-11439000D01*
X9751000Y-11399000D02*
X9711000Y-11439000D01*
X9741000Y-6498000D02*
X9781000Y-6538000D01*
X9781000Y-6498000D02*
X9741000Y-6538000D01*
X9741000Y-9699000D02*
X9781000Y-9739000D01*
X9781000Y-9699000D02*
X9741000Y-9739000D01*
X9749000Y-12622000D02*
X9789000Y-12662000D01*
X9789000Y-12622000D02*
X9749000Y-12662000D01*
X9781000Y-7418000D02*
X9821000Y-7458000D01*
X9821000Y-7418000D02*
X9781000Y-7458000D01*
X9781000Y-10619000D02*
X9821000Y-10659000D01*
X9821000Y-10619000D02*
X9781000Y-10659000D01*
X9784000Y-13460000D02*
X9824000Y-13500000D01*
X9824000Y-13460000D02*
X9784000Y-13500000D01*
X9882000Y-13465000D02*
X9922000Y-13505000D01*
X9922000Y-13465000D02*
X9882000Y-13505000D01*
X9941000Y-6498000D02*
X9981000Y-6538000D01*
X9981000Y-6498000D02*
X9941000Y-6538000D01*
X9941000Y-9699000D02*
X9981000Y-9739000D01*
X9981000Y-9699000D02*
X9941000Y-9739000D01*
X10161000Y-6858000D02*
X10201000Y-6898000D01*
X10201000Y-6858000D02*
X10161000Y-6898000D01*
X10161000Y-10059000D02*
X10201000Y-10099000D01*
X10201000Y-10059000D02*
X10161000Y-10099000D01*
X10191501Y-12554501D02*
X10231501Y-12594501D01*
X10231501Y-12554501D02*
X10191501Y-12594501D01*
X10208000Y-13589000D02*
X10248000Y-13629000D01*
X10248000Y-13589000D02*
X10208000Y-13629000D01*
X10279000Y-12031000D02*
X10319000Y-12071000D01*
X10319000Y-12031000D02*
X10279000Y-12071000D01*
X10281498Y-13178000D02*
X10321498Y-13218000D01*
X10321498Y-13178000D02*
X10281498Y-13218000D01*
X10296499Y-12911725D02*
X10336499Y-12951725D01*
X10336499Y-12911725D02*
X10296499Y-12951725D01*
X10329000Y-12832000D02*
X10369000Y-12872000D01*
X10369000Y-12832000D02*
X10329000Y-12872000D01*
X10386000Y-7683000D02*
X10426000Y-7723000D01*
X10426000Y-7683000D02*
X10386000Y-7723000D01*
X10386000Y-10884000D02*
X10426000Y-10924000D01*
X10426000Y-10884000D02*
X10386000Y-10924000D01*
X10391000Y-8198000D02*
X10431000Y-8238000D01*
X10431000Y-8198000D02*
X10391000Y-8238000D01*
X10391000Y-11399000D02*
X10431000Y-11439000D01*
X10431000Y-11399000D02*
X10391000Y-11439000D01*
X10401000Y-6438000D02*
X10441000Y-6478000D01*
X10441000Y-6438000D02*
X10401000Y-6478000D01*
X10401000Y-9639000D02*
X10441000Y-9679000D01*
X10441000Y-9639000D02*
X10401000Y-9679000D01*
X10571000Y-7948000D02*
X10611000Y-7988000D01*
X10611000Y-7948000D02*
X10571000Y-7988000D01*
X10571000Y-11149000D02*
X10611000Y-11189000D01*
X10611000Y-11149000D02*
X10571000Y-11189000D01*
X10641000Y-8058000D02*
X10681000Y-8098000D01*
X10681000Y-8058000D02*
X10641000Y-8098000D01*
X10641000Y-11259000D02*
X10681000Y-11299000D01*
X10681000Y-11259000D02*
X10641000Y-11299000D01*
X10771000Y-6038000D02*
X10811000Y-6078000D01*
X10811000Y-6038000D02*
X10771000Y-6078000D01*
X10771000Y-9239000D02*
X10811000Y-9279000D01*
X10811000Y-9239000D02*
X10771000Y-9279000D01*
X10791000Y-6458000D02*
X10831000Y-6498000D01*
X10831000Y-6458000D02*
X10791000Y-6498000D01*
X10791000Y-9659000D02*
X10831000Y-9699000D01*
X10831000Y-9659000D02*
X10791000Y-9699000D01*
X10801000Y-7398000D02*
X10841000Y-7438000D01*
X10841000Y-7398000D02*
X10801000Y-7438000D01*
X10801000Y-10599000D02*
X10841000Y-10639000D01*
X10841000Y-10599000D02*
X10801000Y-10639000D01*
X10921000Y-6378000D02*
X10961000Y-6418000D01*
X10961000Y-6378000D02*
X10921000Y-6418000D01*
X10921000Y-9579000D02*
X10961000Y-9619000D01*
X10961000Y-9579000D02*
X10921000Y-9619000D01*
X10931000Y-5768000D02*
X10971000Y-5808000D01*
X10971000Y-5768000D02*
X10931000Y-5808000D01*
X10931000Y-5958000D02*
X10971000Y-5998000D01*
X10971000Y-5958000D02*
X10931000Y-5998000D01*
X10931000Y-8969000D02*
X10971000Y-9009000D01*
X10971000Y-8969000D02*
X10931000Y-9009000D01*
X10931000Y-9159000D02*
X10971000Y-9199000D01*
X10971000Y-9159000D02*
X10931000Y-9199000D01*
X11021000Y-7967999D02*
X11061000Y-8007999D01*
X11061000Y-7967999D02*
X11021000Y-8007999D01*
X11021000Y-11168999D02*
X11061000Y-11208999D01*
X11061000Y-11168999D02*
X11021000Y-11208999D01*
X11151000Y-6758000D02*
X11191000Y-6798000D01*
X11191000Y-6758000D02*
X11151000Y-6798000D01*
X11151000Y-9959000D02*
X11191000Y-9999000D01*
X11191000Y-9959000D02*
X11151000Y-9999000D01*
X11331000Y-7298000D02*
X11371000Y-7338000D01*
X11371000Y-7298000D02*
X11331000Y-7338000D01*
X11331000Y-10499000D02*
X11371000Y-10539000D01*
X11371000Y-10499000D02*
X11331000Y-10539000D01*
X11511000Y-7198000D02*
X11551000Y-7238000D01*
X11551000Y-7198000D02*
X11511000Y-7238000D01*
X11511000Y-7288000D02*
X11551000Y-7328000D01*
X11551000Y-7288000D02*
X11511000Y-7328000D01*
X11511000Y-10399000D02*
X11551000Y-10439000D01*
X11551000Y-10399000D02*
X11511000Y-10439000D01*
X11511000Y-10489000D02*
X11551000Y-10529000D01*
X11551000Y-10489000D02*
X11511000Y-10529000D01*
X11611000Y-6548000D02*
X11651000Y-6588000D01*
X11651000Y-6548000D02*
X11611000Y-6588000D01*
X11611000Y-9749000D02*
X11651000Y-9789000D01*
X11651000Y-9749000D02*
X11611000Y-9789000D01*
X11691000Y-7178000D02*
X11731000Y-7218000D01*
X11731000Y-7178000D02*
X11691000Y-7218000D01*
X11691000Y-10379000D02*
X11731000Y-10419000D01*
X11731000Y-10379000D02*
X11691000Y-10419000D01*
X11701000Y-7268000D02*
X11741000Y-7308000D01*
X11741000Y-7268000D02*
X11701000Y-7308000D01*
X11701000Y-10469000D02*
X11741000Y-10509000D01*
X11741000Y-10469000D02*
X11701000Y-10509000D01*
X11711000Y-6748000D02*
X11751000Y-6788000D01*
X11751000Y-6748000D02*
X11711000Y-6788000D01*
X11711000Y-9949000D02*
X11751000Y-9989000D01*
X11751000Y-9949000D02*
X11711000Y-9989000D01*
X11791000Y-7418000D02*
X11831000Y-7458000D01*
X11831000Y-7418000D02*
X11791000Y-7458000D01*
X11791000Y-10619000D02*
X11831000Y-10659000D01*
X11831000Y-10619000D02*
X11791000Y-10659000D01*
X11901000Y-6308000D02*
X11941000Y-6348000D01*
X11941000Y-6308000D02*
X11901000Y-6348000D01*
X11901000Y-9509000D02*
X11941000Y-9549000D01*
X11941000Y-9509000D02*
X11901000Y-9549000D01*
X11991000Y-7218000D02*
X12031000Y-7258000D01*
X12031000Y-7218000D02*
X11991000Y-7258000D01*
X11991000Y-8058000D02*
X12031000Y-8098000D01*
X12031000Y-8058000D02*
X11991000Y-8098000D01*
X11991000Y-10419000D02*
X12031000Y-10459000D01*
X12031000Y-10419000D02*
X11991000Y-10459000D01*
X11991000Y-11259000D02*
X12031000Y-11299000D01*
X12031000Y-11259000D02*
X11991000Y-11299000D01*
X12031000Y-7378000D02*
X12071000Y-7418000D01*
X12071000Y-7378000D02*
X12031000Y-7418000D01*
X12031000Y-7938000D02*
X12071000Y-7978000D01*
X12071000Y-7938000D02*
X12031000Y-7978000D01*
X12031000Y-10579000D02*
X12071000Y-10619000D01*
X12071000Y-10579000D02*
X12031000Y-10619000D01*
X12031000Y-11139000D02*
X12071000Y-11179000D01*
X12071000Y-11139000D02*
X12031000Y-11179000D01*
X12091000Y-6758000D02*
X12131000Y-6798000D01*
X12131000Y-6758000D02*
X12091000Y-6798000D01*
X12091000Y-9959000D02*
X12131000Y-9999000D01*
X12131000Y-9959000D02*
X12091000Y-9999000D01*
X12191000Y-7218000D02*
X12231000Y-7258000D01*
X12231000Y-7218000D02*
X12191000Y-7258000D01*
X12191000Y-10419000D02*
X12231000Y-10459000D01*
X12231000Y-10419000D02*
X12191000Y-10459000D01*
X12201000Y-7388000D02*
X12241000Y-7428000D01*
X12241000Y-7388000D02*
X12201000Y-7428000D01*
X12201000Y-10589000D02*
X12241000Y-10629000D01*
X12241000Y-10589000D02*
X12201000Y-10629000D01*
X12229000Y-12432000D02*
X12269000Y-12472000D01*
X12269000Y-12432000D02*
X12229000Y-12472000D01*
X12251000Y-7948000D02*
X12291000Y-7988000D01*
X12291000Y-7948000D02*
X12251000Y-7988000D01*
X12251000Y-11149000D02*
X12291000Y-11189000D01*
X12291000Y-11149000D02*
X12251000Y-11189000D01*
X12299000Y-12332000D02*
X12339000Y-12372000D01*
X12339000Y-12332000D02*
X12299000Y-12372000D01*
X12391000Y-7388000D02*
X12431000Y-7428000D01*
X12431000Y-7388000D02*
X12391000Y-7428000D01*
X12391000Y-10589000D02*
X12431000Y-10629000D01*
X12431000Y-10589000D02*
X12391000Y-10629000D01*
X12419000Y-12152000D02*
X12459000Y-12192000D01*
X12459000Y-12152000D02*
X12419000Y-12192000D01*
X12459000Y-12377002D02*
X12499000Y-12417002D01*
X12499000Y-12377002D02*
X12459000Y-12417002D01*
X12539275Y-12089499D02*
X12579275Y-12129499D01*
X12579275Y-12089499D02*
X12539275Y-12129499D01*
X12599000Y-14092000D02*
X12639000Y-14132000D01*
X12639000Y-14092000D02*
X12599000Y-14132000D01*
X12649000Y-14352000D02*
X12689000Y-14392000D01*
X12689000Y-14352000D02*
X12649000Y-14392000D01*
X12669247Y-7930501D02*
X12709247Y-7970501D01*
X12709247Y-7930501D02*
X12669247Y-7970501D01*
X12669247Y-11131501D02*
X12709247Y-11171501D01*
X12709247Y-11131501D02*
X12669247Y-11171501D01*
X12722985Y-12078016D02*
X12762985Y-12118016D01*
X12762985Y-12078016D02*
X12722985Y-12118016D01*
X12739000Y-13872000D02*
X12779000Y-13912000D01*
X12779000Y-13872000D02*
X12739000Y-13912000D01*
X12789000Y-12672000D02*
X12829000Y-12712000D01*
X12829000Y-12672000D02*
X12789000Y-12712000D01*
X12789000Y-13652000D02*
X12829000Y-13692000D01*
X12829000Y-13652000D02*
X12789000Y-13692000D01*
X12861000Y-7368000D02*
X12901000Y-7408000D01*
X12901000Y-7368000D02*
X12861000Y-7408000D01*
X12861000Y-10569000D02*
X12901000Y-10609000D01*
X12901000Y-10569000D02*
X12861000Y-10609000D01*
X12931000Y-8198000D02*
X12971000Y-8238000D01*
X12971000Y-8198000D02*
X12931000Y-8238000D01*
X12931000Y-11399000D02*
X12971000Y-11439000D01*
X12971000Y-11399000D02*
X12931000Y-11439000D01*
X13229000Y-12162000D02*
X13269000Y-12202000D01*
X13269000Y-12162000D02*
X13229000Y-12202000D01*
X13299000Y-12992000D02*
X13339000Y-13032000D01*
X13339000Y-12992000D02*
X13299000Y-13032000D01*
X13371000Y-6708000D02*
X13411000Y-6748000D01*
X13411000Y-6708000D02*
X13371000Y-6748000D01*
X13371000Y-7688000D02*
X13411000Y-7728000D01*
X13411000Y-7688000D02*
X13371000Y-7728000D01*
X13371000Y-9909000D02*
X13411000Y-9949000D01*
X13411000Y-9909000D02*
X13371000Y-9949000D01*
X13371000Y-10889000D02*
X13411000Y-10929000D01*
X13411000Y-10889000D02*
X13371000Y-10929000D01*
X13421000Y-6488000D02*
X13461000Y-6528000D01*
X13461000Y-6488000D02*
X13421000Y-6528000D01*
X13421000Y-9689000D02*
X13461000Y-9729000D01*
X13461000Y-9689000D02*
X13421000Y-9729000D01*
X13437015Y-8281984D02*
X13477015Y-8321984D01*
X13477015Y-8281984D02*
X13437015Y-8321984D01*
X13437015Y-11482984D02*
X13477015Y-11522984D01*
X13477015Y-11482984D02*
X13437015Y-11522984D01*
X13490753Y-12429499D02*
X13530753Y-12469499D01*
X13530753Y-12429499D02*
X13490753Y-12469499D01*
X13511000Y-6008000D02*
X13551000Y-6048000D01*
X13551000Y-6008000D02*
X13511000Y-6048000D01*
X13511000Y-9209000D02*
X13551000Y-9249000D01*
X13551000Y-9209000D02*
X13511000Y-9249000D01*
X13561000Y-6268000D02*
X13601000Y-6308000D01*
X13601000Y-6268000D02*
X13561000Y-6308000D01*
X13561000Y-9469000D02*
X13601000Y-9509000D01*
X13601000Y-9469000D02*
X13561000Y-9509000D01*
X13620725Y-8270501D02*
X13660725Y-8310501D01*
X13660725Y-8270501D02*
X13620725Y-8310501D01*
X13620725Y-11471501D02*
X13660725Y-11511501D01*
X13660725Y-11471501D02*
X13620725Y-11511501D01*
X13701000Y-7982998D02*
X13741000Y-8022998D01*
X13741000Y-7982998D02*
X13701000Y-8022998D01*
X13701000Y-11183998D02*
X13741000Y-11223998D01*
X13741000Y-11183998D02*
X13701000Y-11223998D01*
X13741000Y-8208000D02*
X13781000Y-8248000D01*
X13781000Y-8208000D02*
X13741000Y-8248000D01*
X13741000Y-11409000D02*
X13781000Y-11449000D01*
X13781000Y-11409000D02*
X13741000Y-11449000D01*
X13769000Y-12972000D02*
X13809000Y-13012000D01*
X13809000Y-12972000D02*
X13769000Y-13012000D01*
X13861000Y-8028000D02*
X13901000Y-8068000D01*
X13901000Y-8028000D02*
X13861000Y-8068000D01*
X13861000Y-11229000D02*
X13901000Y-11269000D01*
X13901000Y-11229000D02*
X13861000Y-11269000D01*
X13909000Y-12412000D02*
X13949000Y-12452000D01*
X13949000Y-12412000D02*
X13909000Y-12452000D01*
X13931000Y-7928000D02*
X13971000Y-7968000D01*
X13971000Y-7928000D02*
X13931000Y-7968000D01*
X13931000Y-11129000D02*
X13971000Y-11169000D01*
X13971000Y-11129000D02*
X13931000Y-11169000D01*
X13959000Y-12972000D02*
X13999000Y-13012000D01*
X13999000Y-12972000D02*
X13959000Y-13012000D01*
X13969000Y-13142000D02*
X14009000Y-13182000D01*
X14009000Y-13142000D02*
X13969000Y-13182000D01*
X14069000Y-13602000D02*
X14109000Y-13642000D01*
X14109000Y-13602000D02*
X14069000Y-13642000D01*
X14129000Y-12422000D02*
X14169000Y-12462000D01*
X14169000Y-12422000D02*
X14129000Y-12462000D01*
X14129000Y-12982000D02*
X14169000Y-13022000D01*
X14169000Y-12982000D02*
X14129000Y-13022000D01*
X14169000Y-12302000D02*
X14209000Y-12342000D01*
X14209000Y-12302000D02*
X14169000Y-12342000D01*
X14169000Y-13142000D02*
X14209000Y-13182000D01*
X14209000Y-13142000D02*
X14169000Y-13182000D01*
X14259000Y-14052000D02*
X14299000Y-14092000D01*
X14299000Y-14052000D02*
X14259000Y-14092000D01*
X14369000Y-12942000D02*
X14409000Y-12982000D01*
X14409000Y-12942000D02*
X14369000Y-12982000D01*
X14449000Y-13612000D02*
X14489000Y-13652000D01*
X14489000Y-13612000D02*
X14449000Y-13652000D01*
X14459000Y-13092000D02*
X14499000Y-13132000D01*
X14499000Y-13092000D02*
X14459000Y-13132000D01*
X14469000Y-13182000D02*
X14509000Y-13222000D01*
X14509000Y-13182000D02*
X14469000Y-13222000D01*
X14549000Y-13812000D02*
X14589000Y-13852000D01*
X14589000Y-13812000D02*
X14549000Y-13852000D01*
X14649000Y-13072000D02*
X14689000Y-13112000D01*
X14689000Y-13072000D02*
X14649000Y-13112000D01*
X14649000Y-13162000D02*
X14689000Y-13202000D01*
X14689000Y-13162000D02*
X14649000Y-13202000D01*
X14829000Y-13062000D02*
X14869000Y-13102000D01*
X14869000Y-13062000D02*
X14829000Y-13102000D01*
X15009000Y-13602000D02*
X15049000Y-13642000D01*
X15049000Y-13602000D02*
X15009000Y-13642000D01*
X15139000Y-12392001D02*
X15179000Y-12432001D01*
X15179000Y-12392001D02*
X15139000Y-12432001D01*
X15229000Y-14402000D02*
X15269000Y-14442000D01*
X15269000Y-14402000D02*
X15229000Y-14442000D01*
X15229000Y-14592000D02*
X15269000Y-14632000D01*
X15269000Y-14592000D02*
X15229000Y-14632000D01*
X15239000Y-13982000D02*
X15279000Y-14022000D01*
X15279000Y-13982000D02*
X15239000Y-14022000D01*
X15359000Y-12962000D02*
X15399000Y-13002000D01*
X15399000Y-12962000D02*
X15359000Y-13002000D01*
X15369000Y-13902000D02*
X15409000Y-13942000D01*
X15409000Y-13902000D02*
X15369000Y-13942000D01*
X15389000Y-14322000D02*
X15429000Y-14362000D01*
X15429000Y-14322000D02*
X15389000Y-14362000D01*
X15519000Y-12302000D02*
X15559000Y-12342000D01*
X15559000Y-12302000D02*
X15519000Y-12342000D01*
X15589000Y-12412000D02*
X15629000Y-12452000D01*
X15629000Y-12412000D02*
X15589000Y-12452000D01*
X15759000Y-13922000D02*
X15799000Y-13962000D01*
X15799000Y-13922000D02*
X15759000Y-13962000D01*
X15769000Y-12162000D02*
X15809000Y-12202000D01*
X15809000Y-12162000D02*
X15769000Y-12202000D01*
X15774000Y-12677000D02*
X15814000Y-12717000D01*
X15814000Y-12677000D02*
X15774000Y-12717000D01*
X15831000Y-7528000D02*
X15871000Y-7568000D01*
X15871000Y-7528000D02*
X15831000Y-7568000D01*
X15831000Y-10729000D02*
X15871000Y-10769000D01*
X15871000Y-10729000D02*
X15831000Y-10769000D01*
X15863501Y-7448275D02*
X15903501Y-7488275D01*
X15903501Y-7448275D02*
X15863501Y-7488275D01*
X15863501Y-10649275D02*
X15903501Y-10689275D01*
X15903501Y-10649275D02*
X15863501Y-10689275D01*
X15878502Y-7182000D02*
X15918502Y-7222000D01*
X15918502Y-7182000D02*
X15878502Y-7222000D01*
X15878502Y-10383000D02*
X15918502Y-10423000D01*
X15918502Y-10383000D02*
X15878502Y-10423000D01*
X15881000Y-8329000D02*
X15921000Y-8369000D01*
X15921000Y-8329000D02*
X15881000Y-8369000D01*
X15881000Y-11530000D02*
X15921000Y-11570000D01*
X15921000Y-11530000D02*
X15881000Y-11570000D01*
X15952000Y-6771000D02*
X15992000Y-6811000D01*
X15992000Y-6771000D02*
X15952000Y-6811000D01*
X15952000Y-9972000D02*
X15992000Y-10012000D01*
X15992000Y-9972000D02*
X15952000Y-10012000D01*
X15968499Y-7805499D02*
X16008499Y-7845499D01*
X16008499Y-7805499D02*
X15968499Y-7845499D01*
X15968499Y-11006499D02*
X16008499Y-11046499D01*
X16008499Y-11006499D02*
X15968499Y-11046499D01*
X15999000Y-13502000D02*
X16039000Y-13542000D01*
X16039000Y-13502000D02*
X15999000Y-13542000D01*
X16219000Y-13862000D02*
X16259000Y-13902000D01*
X16259000Y-13862000D02*
X16219000Y-13902000D01*
X16278000Y-6895000D02*
X16318000Y-6935000D01*
X16318000Y-6895000D02*
X16278000Y-6935000D01*
X16278000Y-10096000D02*
X16318000Y-10136000D01*
X16318000Y-10096000D02*
X16278000Y-10136000D01*
X16376000Y-6900000D02*
X16416000Y-6940000D01*
X16416000Y-6900000D02*
X16376000Y-6940000D01*
X16376000Y-10101000D02*
X16416000Y-10141000D01*
X16416000Y-10101000D02*
X16376000Y-10141000D01*
X16379000Y-12942000D02*
X16419000Y-12982000D01*
X16419000Y-12942000D02*
X16379000Y-12982000D01*
X16411000Y-7738000D02*
X16451000Y-7778000D01*
X16451000Y-7738000D02*
X16411000Y-7778000D01*
X16411000Y-10939000D02*
X16451000Y-10979000D01*
X16451000Y-10939000D02*
X16411000Y-10979000D01*
X16419000Y-13862000D02*
X16459000Y-13902000D01*
X16459000Y-13862000D02*
X16419000Y-13902000D01*
X16449000Y-12162000D02*
X16489000Y-12202000D01*
X16489000Y-12162000D02*
X16449000Y-12202000D01*
X16449000Y-14162000D02*
X16489000Y-14202000D01*
X16489000Y-14162000D02*
X16449000Y-14202000D01*
X16505000Y-7794000D02*
X16545000Y-7834000D01*
X16545000Y-7794000D02*
X16505000Y-7834000D01*
X16505000Y-10995000D02*
X16545000Y-11035000D01*
X16545000Y-10995000D02*
X16505000Y-11035000D01*
X16506000Y-7688000D02*
X16546000Y-7728000D01*
X16546000Y-7688000D02*
X16506000Y-7728000D01*
X16506000Y-10889000D02*
X16546000Y-10929000D01*
X16546000Y-10889000D02*
X16506000Y-10929000D01*
X16531000Y-6819000D02*
X16571000Y-6859000D01*
X16571000Y-6819000D02*
X16531000Y-6859000D01*
X16531000Y-10020000D02*
X16571000Y-10060000D01*
X16571000Y-10020000D02*
X16531000Y-10060000D01*
X16611000Y-8198000D02*
X16651000Y-8238000D01*
X16651000Y-8198000D02*
X16611000Y-8238000D01*
X16611000Y-11399000D02*
X16651000Y-11439000D01*
X16651000Y-11399000D02*
X16611000Y-11439000D01*
X16612000Y-7794000D02*
X16652000Y-7834000D01*
X16652000Y-7794000D02*
X16612000Y-7834000D01*
X16612000Y-10995000D02*
X16652000Y-11035000D01*
X16652000Y-10995000D02*
X16612000Y-11035000D01*
X16621000Y-7688000D02*
X16661000Y-7728000D01*
X16661000Y-7688000D02*
X16621000Y-7728000D01*
X16621000Y-10889000D02*
X16661000Y-10929000D01*
X16661000Y-10889000D02*
X16621000Y-10929000D01*
X16640000Y-6179000D02*
X16680000Y-6219000D01*
X16680000Y-6179000D02*
X16640000Y-6219000D01*
X16640000Y-9380000D02*
X16680000Y-9420000D01*
X16680000Y-9380000D02*
X16640000Y-9420000D01*
X16660000Y-6499000D02*
X16700000Y-6539000D01*
X16700000Y-6499000D02*
X16660000Y-6539000D01*
X16660000Y-9700000D02*
X16700000Y-9740000D01*
X16700000Y-9700000D02*
X16660000Y-9740000D01*
X16663608Y-6401501D02*
X16703608Y-6441501D01*
X16703608Y-6401501D02*
X16663608Y-6441501D01*
X16663608Y-9602501D02*
X16703608Y-9642501D01*
X16703608Y-9602501D02*
X16663608Y-9642501D01*
X16699000Y-14149499D02*
X16739000Y-14189499D01*
X16739000Y-14149499D02*
X16699000Y-14189499D01*
X16781000Y-7418000D02*
X16821000Y-7458000D01*
X16821000Y-7418000D02*
X16781000Y-7458000D01*
X16781000Y-10619000D02*
X16821000Y-10659000D01*
X16821000Y-10619000D02*
X16781000Y-10659000D01*
X16833798Y-6744836D02*
X16873798Y-6784836D01*
X16873798Y-6744836D02*
X16833798Y-6784836D01*
X16833798Y-9945836D02*
X16873798Y-9985836D01*
X16873798Y-9945836D02*
X16833798Y-9985836D01*
X16859000Y-12312000D02*
X16899000Y-12352000D01*
X16899000Y-12312000D02*
X16859000Y-12352000D01*
X16865000Y-7927000D02*
X16905000Y-7967000D01*
X16905000Y-7927000D02*
X16865000Y-7967000D01*
X16865000Y-11128000D02*
X16905000Y-11168000D01*
X16905000Y-11128000D02*
X16865000Y-11168000D01*
X16910999Y-6765817D02*
X16950999Y-6805817D01*
X16950999Y-6765817D02*
X16910999Y-6805817D01*
X16910999Y-9966817D02*
X16950999Y-10006817D01*
X16950999Y-9966817D02*
X16910999Y-10006817D01*
X16920999Y-7317000D02*
X16960999Y-7357000D01*
X16960999Y-7317000D02*
X16920999Y-7357000D01*
X16920999Y-10518000D02*
X16960999Y-10558000D01*
X16960999Y-10518000D02*
X16920999Y-10558000D01*
X16951000Y-7418000D02*
X16991000Y-7458000D01*
X16991000Y-7418000D02*
X16951000Y-7458000D01*
X16951000Y-10619000D02*
X16991000Y-10659000D01*
X16991000Y-10619000D02*
X16951000Y-10659000D01*
X16970000Y-5939000D02*
X17010000Y-5979000D01*
X17010000Y-5939000D02*
X16970000Y-5979000D01*
X16970000Y-9140000D02*
X17010000Y-9180000D01*
X17010000Y-9140000D02*
X16970000Y-9180000D01*
X16971000Y-6478000D02*
X17011000Y-6518000D01*
X17011000Y-6478000D02*
X16971000Y-6518000D01*
X16971000Y-9679000D02*
X17011000Y-9719000D01*
X17011000Y-9679000D02*
X16971000Y-9719000D01*
X17011000Y-6598000D02*
X17051000Y-6638000D01*
X17051000Y-6598000D02*
X17011000Y-6638000D01*
X17011000Y-9799000D02*
X17051000Y-9839000D01*
X17051000Y-9799000D02*
X17011000Y-9839000D01*
X17055000Y-8178000D02*
X17095000Y-8218000D01*
X17095000Y-8178000D02*
X17055000Y-8218000D01*
X17055000Y-11379000D02*
X17095000Y-11419000D01*
X17095000Y-11379000D02*
X17055000Y-11419000D01*
X17057000Y-8262000D02*
X17097000Y-8302000D01*
X17097000Y-8262000D02*
X17057000Y-8302000D01*
X17057000Y-11463000D02*
X17097000Y-11503000D01*
X17097000Y-11463000D02*
X17057000Y-11503000D01*
X17149000Y-12172000D02*
X17189000Y-12212000D01*
X17189000Y-12172000D02*
X17149000Y-12212000D01*
X17386000Y-8006000D02*
X17426000Y-8046000D01*
X17426000Y-8006000D02*
X17386000Y-8046000D01*
X17386000Y-11207000D02*
X17426000Y-11247000D01*
X17426000Y-11207000D02*
X17386000Y-11247000D01*
X17395000Y-7107000D02*
X17435000Y-7147000D01*
X17435000Y-7107000D02*
X17395000Y-7147000D01*
X17395000Y-10308000D02*
X17435000Y-10348000D01*
X17435000Y-10308000D02*
X17395000Y-10348000D01*
X17559000Y-12722000D02*
X17599000Y-12762000D01*
X17599000Y-12722000D02*
X17559000Y-12762000D01*
X17560000Y-8369000D02*
X17600000Y-8409000D01*
X17600000Y-8369000D02*
X17560000Y-8409000D01*
X17560000Y-11570000D02*
X17600000Y-11610000D01*
X17600000Y-11570000D02*
X17560000Y-11610000D01*
X17570000Y-7549000D02*
X17610000Y-7589000D01*
X17610000Y-7549000D02*
X17570000Y-7589000D01*
X17570000Y-10750000D02*
X17610000Y-10790000D01*
X17610000Y-10750000D02*
X17570000Y-10790000D01*
X17619000Y-13392000D02*
X17659000Y-13432000D01*
X17659000Y-13392000D02*
X17619000Y-13432000D01*
X17619000Y-14102000D02*
X17659000Y-14142000D01*
X17659000Y-14102000D02*
X17619000Y-14142000D01*
X17650000Y-7299000D02*
X17690000Y-7339000D01*
X17690000Y-7299000D02*
X17650000Y-7339000D01*
X17650000Y-10500000D02*
X17690000Y-10540000D01*
X17690000Y-10500000D02*
X17650000Y-10540000D01*
X17660000Y-6699000D02*
X17700000Y-6739000D01*
X17700000Y-6699000D02*
X17660000Y-6739000D01*
X17660000Y-9900000D02*
X17700000Y-9940000D01*
X17700000Y-9900000D02*
X17660000Y-9940000D01*
X17677393Y-6979194D02*
X17717393Y-7019194D01*
X17717393Y-6979194D02*
X17677393Y-7019194D01*
X17677393Y-10180194D02*
X17717393Y-10220194D01*
X17717393Y-10180194D02*
X17677393Y-10220194D01*
X17740000Y-7029000D02*
X17780000Y-7069000D01*
X17780000Y-7029000D02*
X17740000Y-7069000D01*
X17740000Y-10230000D02*
X17780000Y-10270000D01*
X17780000Y-10230000D02*
X17740000Y-10270000D01*
X17789000Y-12662000D02*
X17829000Y-12702000D01*
X17829000Y-12662000D02*
X17789000Y-12702000D01*
X17809850Y-7268955D02*
X17849850Y-7308955D01*
X17849850Y-7268955D02*
X17809850Y-7308955D01*
X17809850Y-10469955D02*
X17849850Y-10509955D01*
X17849850Y-10469955D02*
X17809850Y-10509955D01*
X17812999Y-7927070D02*
X17852999Y-7967070D01*
X17852999Y-7927070D02*
X17812999Y-7967070D01*
X17812999Y-11128070D02*
X17852999Y-11168070D01*
X17852999Y-11128070D02*
X17812999Y-11168070D01*
X17814335Y-6992372D02*
X17854335Y-7032372D01*
X17854335Y-6992372D02*
X17814335Y-7032372D01*
X17814335Y-10193372D02*
X17854335Y-10233372D01*
X17854335Y-10193372D02*
X17814335Y-10233372D01*
X17890000Y-6689000D02*
X17930000Y-6729000D01*
X17930000Y-6689000D02*
X17890000Y-6729000D01*
X17890000Y-9890000D02*
X17930000Y-9930000D01*
X17930000Y-9890000D02*
X17890000Y-9930000D01*
X17904000Y-7287000D02*
X17944000Y-7327000D01*
X17944000Y-7287000D02*
X17904000Y-7327000D01*
X17904000Y-10488000D02*
X17944000Y-10528000D01*
X17944000Y-10488000D02*
X17904000Y-10528000D01*
X17959000Y-13472000D02*
X17999000Y-13512000D01*
X17999000Y-13472000D02*
X17959000Y-13512000D01*
X10677100Y-12696000D02*
G75*
G03X10677100Y-12696000I-38100J0D01*
G01*
X10677100Y-12896000D02*
G75*
G03X10677100Y-12896000I-38100J0D01*
G01*
X10677100Y-13096000D02*
G75*
G03X10677100Y-13096000I-38100J0D01*
G01*
X10677100Y-13296000D02*
G75*
G03X10677100Y-13296000I-38100J0D01*
G01*
X10677100Y-13496000D02*
G75*
G03X10677100Y-13496000I-38100J0D01*
G01*
X10677100Y-13696000D02*
G75*
G03X10677100Y-13696000I-38100J0D01*
G01*
X10677100Y-13896000D02*
G75*
G03X10677100Y-13896000I-38100J0D01*
G01*
X10677100Y-14096000D02*
G75*
G03X10677100Y-14096000I-38100J0D01*
G01*
X11067100Y-12496000D02*
G75*
G03X11067100Y-12496000I-38100J0D01*
G01*
X11267100Y-12496000D02*
G75*
G03X11267100Y-12496000I-38100J0D01*
G01*
X11467100Y-12496000D02*
G75*
G03X11467100Y-12496000I-38100J0D01*
G01*
X11667100Y-12496000D02*
G75*
G03X11667100Y-12496000I-38100J0D01*
G01*
X11867100Y-12496000D02*
G75*
G03X11867100Y-12496000I-38100J0D01*
G01*
X12067100Y-12496000D02*
G75*
G03X12067100Y-12496000I-38100J0D01*
G01*
X12477100Y-12696000D02*
G75*
G03X12477100Y-12696000I-38100J0D01*
G01*
X12477100Y-12896000D02*
G75*
G03X12477100Y-12896000I-38100J0D01*
G01*
X12477100Y-13096000D02*
G75*
G03X12477100Y-13096000I-38100J0D01*
G01*
X12477100Y-13296000D02*
G75*
G03X12477100Y-13296000I-38100J0D01*
G01*
X12477100Y-13496000D02*
G75*
G03X12477100Y-13496000I-38100J0D01*
G01*
X12477100Y-13696000D02*
G75*
G03X12477100Y-13696000I-38100J0D01*
G01*
X12477100Y-13896000D02*
G75*
G03X12477100Y-13896000I-38100J0D01*
G01*
X12477100Y-14096000D02*
G75*
G03X12477100Y-14096000I-38100J0D01*
G01*
X13799100Y-6304000D02*
G75*
G03X13799100Y-6304000I-38100J0D01*
G01*
X13799100Y-6504000D02*
G75*
G03X13799100Y-6504000I-38100J0D01*
G01*
X13799100Y-6704000D02*
G75*
G03X13799100Y-6704000I-38100J0D01*
G01*
X13799100Y-6904000D02*
G75*
G03X13799100Y-6904000I-38100J0D01*
G01*
X13799100Y-7104000D02*
G75*
G03X13799100Y-7104000I-38100J0D01*
G01*
X13799100Y-7304000D02*
G75*
G03X13799100Y-7304000I-38100J0D01*
G01*
X13799100Y-7504000D02*
G75*
G03X13799100Y-7504000I-38100J0D01*
G01*
X13799100Y-7704000D02*
G75*
G03X13799100Y-7704000I-38100J0D01*
G01*
X13799100Y-9505000D02*
G75*
G03X13799100Y-9505000I-38100J0D01*
G01*
X13799100Y-9705000D02*
G75*
G03X13799100Y-9705000I-38100J0D01*
G01*
X13799100Y-9905000D02*
G75*
G03X13799100Y-9905000I-38100J0D01*
G01*
X13799100Y-10105000D02*
G75*
G03X13799100Y-10105000I-38100J0D01*
G01*
X13799100Y-10305000D02*
G75*
G03X13799100Y-10305000I-38100J0D01*
G01*
X13799100Y-10505000D02*
G75*
G03X13799100Y-10505000I-38100J0D01*
G01*
X13799100Y-10705000D02*
G75*
G03X13799100Y-10705000I-38100J0D01*
G01*
X13799100Y-10905000D02*
G75*
G03X13799100Y-10905000I-38100J0D01*
G01*
X14209100Y-7904000D02*
G75*
G03X14209100Y-7904000I-38100J0D01*
G01*
X14209100Y-11105000D02*
G75*
G03X14209100Y-11105000I-38100J0D01*
G01*
X14409100Y-7904000D02*
G75*
G03X14409100Y-7904000I-38100J0D01*
G01*
X14409100Y-11105000D02*
G75*
G03X14409100Y-11105000I-38100J0D01*
G01*
X14609100Y-7904000D02*
G75*
G03X14609100Y-7904000I-38100J0D01*
G01*
X14609100Y-11105000D02*
G75*
G03X14609100Y-11105000I-38100J0D01*
G01*
X14809100Y-7904000D02*
G75*
G03X14809100Y-7904000I-38100J0D01*
G01*
X14809100Y-11105000D02*
G75*
G03X14809100Y-11105000I-38100J0D01*
G01*
X15009100Y-7904000D02*
G75*
G03X15009100Y-7904000I-38100J0D01*
G01*
X15009100Y-11105000D02*
G75*
G03X15009100Y-11105000I-38100J0D01*
G01*
X15209100Y-7904000D02*
G75*
G03X15209100Y-7904000I-38100J0D01*
G01*
X15209100Y-11105000D02*
G75*
G03X15209100Y-11105000I-38100J0D01*
G01*
X15599100Y-6304000D02*
G75*
G03X15599100Y-6304000I-38100J0D01*
G01*
X15599100Y-6504000D02*
G75*
G03X15599100Y-6504000I-38100J0D01*
G01*
X15599100Y-6704000D02*
G75*
G03X15599100Y-6704000I-38100J0D01*
G01*
X15599100Y-6904000D02*
G75*
G03X15599100Y-6904000I-38100J0D01*
G01*
X15599100Y-7104000D02*
G75*
G03X15599100Y-7104000I-38100J0D01*
G01*
X15599100Y-7304000D02*
G75*
G03X15599100Y-7304000I-38100J0D01*
G01*
X15599100Y-7504000D02*
G75*
G03X15599100Y-7504000I-38100J0D01*
G01*
X15599100Y-7704000D02*
G75*
G03X15599100Y-7704000I-38100J0D01*
G01*
X15599100Y-9505000D02*
G75*
G03X15599100Y-9505000I-38100J0D01*
G01*
X15599100Y-9705000D02*
G75*
G03X15599100Y-9705000I-38100J0D01*
G01*
X15599100Y-9905000D02*
G75*
G03X15599100Y-9905000I-38100J0D01*
G01*
X15599100Y-10105000D02*
G75*
G03X15599100Y-10105000I-38100J0D01*
G01*
X15599100Y-10305000D02*
G75*
G03X15599100Y-10305000I-38100J0D01*
G01*
X15599100Y-10505000D02*
G75*
G03X15599100Y-10505000I-38100J0D01*
G01*
X15599100Y-10705000D02*
G75*
G03X15599100Y-10705000I-38100J0D01*
G01*
X15599100Y-10905000D02*
G75*
G03X15599100Y-10905000I-38100J0D01*
G01*
X8351240Y-14285670D02*
X8351240Y-14375670D01*
X8306240Y-14330670D02*
X8396240Y-14330670D01*
X8351240Y-14295670D02*
X8351240Y-14295670D01*
X8351240Y-14365670D02*
X8351240Y-14365670D01*
X8351240Y-14295670D02*
G75*
G03X8351240Y-14365670I0J-35000D01*
G01*
X8351240Y-14365670D02*
G75*
G03X8351240Y-14295670I0J35000D01*
G01*
X8351240Y-14486330D02*
X8351240Y-14576330D01*
X8306240Y-14531330D02*
X8396240Y-14531330D01*
X8351240Y-14496330D02*
X8351240Y-14496330D01*
X8351240Y-14566330D02*
X8351240Y-14566330D01*
X8351240Y-14496330D02*
G75*
G03X8351240Y-14566330I0J-35000D01*
G01*
X8351240Y-14566330D02*
G75*
G03X8351240Y-14496330I0J35000D01*
G01*
X8549360Y-14135810D02*
X8549360Y-14225810D01*
X8504360Y-14180810D02*
X8594360Y-14180810D01*
X8549360Y-14145810D02*
X8549360Y-14145810D01*
X8549360Y-14215810D02*
X8549360Y-14215810D01*
X8549360Y-14145810D02*
G75*
G03X8549360Y-14215810I0J-35000D01*
G01*
X8549360Y-14215810D02*
G75*
G03X8549360Y-14145810I0J35000D01*
G01*
X8549360Y-14636190D02*
X8549360Y-14726190D01*
X8504360Y-14681190D02*
X8594360Y-14681190D01*
X8549360Y-14646190D02*
X8549360Y-14646190D01*
X8549360Y-14716190D02*
X8549360Y-14716190D01*
X8549360Y-14646190D02*
G75*
G03X8549360Y-14716190I0J-35000D01*
G01*
X8549360Y-14716190D02*
G75*
G03X8549360Y-14646190I0J35000D01*
G01*
X8750020Y-14186610D02*
X8750020Y-14276610D01*
X8705020Y-14231610D02*
X8795020Y-14231610D01*
X8750020Y-14196610D02*
X8750020Y-14196610D01*
X8750020Y-14266610D02*
X8750020Y-14266610D01*
X8750020Y-14196610D02*
G75*
G03X8750020Y-14266610I0J-35000D01*
G01*
X8750020Y-14266610D02*
G75*
G03X8750020Y-14196610I0J35000D01*
G01*
X8750020Y-14386000D02*
X8750020Y-14476000D01*
X8705020Y-14431000D02*
X8795020Y-14431000D01*
X8750020Y-14396000D02*
X8750020Y-14396000D01*
X8750020Y-14466000D02*
X8750020Y-14466000D01*
X8750020Y-14396000D02*
G75*
G03X8750020Y-14466000I0J-35000D01*
G01*
X8750020Y-14466000D02*
G75*
G03X8750020Y-14396000I0J35000D01*
G01*
X8750020Y-14585390D02*
X8750020Y-14675390D01*
X8705020Y-14630390D02*
X8795020Y-14630390D01*
X8750020Y-14595390D02*
X8750020Y-14595390D01*
X8750020Y-14665390D02*
X8750020Y-14665390D01*
X8750020Y-14595390D02*
G75*
G03X8750020Y-14665390I0J-35000D01*
G01*
X8750020Y-14665390D02*
G75*
G03X8750020Y-14595390I0J35000D01*
G01*
X17449980Y-5724610D02*
X17449980Y-5814610D01*
X17404980Y-5769610D02*
X17494980Y-5769610D01*
X17449980Y-5804610D02*
X17449980Y-5804610D01*
X17449980Y-5734610D02*
X17449980Y-5734610D01*
X17449980Y-5804610D02*
G75*
G03X17449980Y-5734610I0J35000D01*
G01*
X17449980Y-5734610D02*
G75*
G03X17449980Y-5804610I0J-35000D01*
G01*
X17449980Y-5924000D02*
X17449980Y-6014000D01*
X17404980Y-5969000D02*
X17494980Y-5969000D01*
X17449980Y-6004000D02*
X17449980Y-6004000D01*
X17449980Y-5934000D02*
X17449980Y-5934000D01*
X17449980Y-6004000D02*
G75*
G03X17449980Y-5934000I0J35000D01*
G01*
X17449980Y-5934000D02*
G75*
G03X17449980Y-6004000I0J-35000D01*
G01*
X17449980Y-6123390D02*
X17449980Y-6213390D01*
X17404980Y-6168390D02*
X17494980Y-6168390D01*
X17449980Y-6203390D02*
X17449980Y-6203390D01*
X17449980Y-6133390D02*
X17449980Y-6133390D01*
X17449980Y-6203390D02*
G75*
G03X17449980Y-6133390I0J35000D01*
G01*
X17449980Y-6133390D02*
G75*
G03X17449980Y-6203390I0J-35000D01*
G01*
X17449980Y-8925610D02*
X17449980Y-9015610D01*
X17404980Y-8970610D02*
X17494980Y-8970610D01*
X17449980Y-9005610D02*
X17449980Y-9005610D01*
X17449980Y-8935610D02*
X17449980Y-8935610D01*
X17449980Y-9005610D02*
G75*
G03X17449980Y-8935610I0J35000D01*
G01*
X17449980Y-8935610D02*
G75*
G03X17449980Y-9005610I0J-35000D01*
G01*
X17449980Y-9125000D02*
X17449980Y-9215000D01*
X17404980Y-9170000D02*
X17494980Y-9170000D01*
X17449980Y-9205000D02*
X17449980Y-9205000D01*
X17449980Y-9135000D02*
X17449980Y-9135000D01*
X17449980Y-9205000D02*
G75*
G03X17449980Y-9135000I0J35000D01*
G01*
X17449980Y-9135000D02*
G75*
G03X17449980Y-9205000I0J-35000D01*
G01*
X17449980Y-9324390D02*
X17449980Y-9414390D01*
X17404980Y-9369390D02*
X17494980Y-9369390D01*
X17449980Y-9404390D02*
X17449980Y-9404390D01*
X17449980Y-9334390D02*
X17449980Y-9334390D01*
X17449980Y-9404390D02*
G75*
G03X17449980Y-9334390I0J35000D01*
G01*
X17449980Y-9334390D02*
G75*
G03X17449980Y-9404390I0J-35000D01*
G01*
X17650640Y-5673810D02*
X17650640Y-5763810D01*
X17605640Y-5718810D02*
X17695640Y-5718810D01*
X17650640Y-5753810D02*
X17650640Y-5753810D01*
X17650640Y-5683810D02*
X17650640Y-5683810D01*
X17650640Y-5753810D02*
G75*
G03X17650640Y-5683810I0J35000D01*
G01*
X17650640Y-5683810D02*
G75*
G03X17650640Y-5753810I0J-35000D01*
G01*
X17650640Y-6174190D02*
X17650640Y-6264190D01*
X17605640Y-6219190D02*
X17695640Y-6219190D01*
X17650640Y-6254190D02*
X17650640Y-6254190D01*
X17650640Y-6184190D02*
X17650640Y-6184190D01*
X17650640Y-6254190D02*
G75*
G03X17650640Y-6184190I0J35000D01*
G01*
X17650640Y-6184190D02*
G75*
G03X17650640Y-6254190I0J-35000D01*
G01*
X17650640Y-8874810D02*
X17650640Y-8964810D01*
X17605640Y-8919810D02*
X17695640Y-8919810D01*
X17650640Y-8954810D02*
X17650640Y-8954810D01*
X17650640Y-8884810D02*
X17650640Y-8884810D01*
X17650640Y-8954810D02*
G75*
G03X17650640Y-8884810I0J35000D01*
G01*
X17650640Y-8884810D02*
G75*
G03X17650640Y-8954810I0J-35000D01*
G01*
X17650640Y-9375190D02*
X17650640Y-9465190D01*
X17605640Y-9420190D02*
X17695640Y-9420190D01*
X17650640Y-9455190D02*
X17650640Y-9455190D01*
X17650640Y-9385190D02*
X17650640Y-9385190D01*
X17650640Y-9455190D02*
G75*
G03X17650640Y-9385190I0J35000D01*
G01*
X17650640Y-9385190D02*
G75*
G03X17650640Y-9455190I0J-35000D01*
G01*
X17848760Y-5823670D02*
X17848760Y-5913670D01*
X17803760Y-5868670D02*
X17893760Y-5868670D01*
X17848760Y-5903670D02*
X17848760Y-5903670D01*
X17848760Y-5833670D02*
X17848760Y-5833670D01*
X17848760Y-5903670D02*
G75*
G03X17848760Y-5833670I0J35000D01*
G01*
X17848760Y-5833670D02*
G75*
G03X17848760Y-5903670I0J-35000D01*
G01*
X17848760Y-6024330D02*
X17848760Y-6114330D01*
X17803760Y-6069330D02*
X17893760Y-6069330D01*
X17848760Y-6104330D02*
X17848760Y-6104330D01*
X17848760Y-6034330D02*
X17848760Y-6034330D01*
X17848760Y-6104330D02*
G75*
G03X17848760Y-6034330I0J35000D01*
G01*
X17848760Y-6034330D02*
G75*
G03X17848760Y-6104330I0J-35000D01*
G01*
X17848760Y-9024670D02*
X17848760Y-9114670D01*
X17803760Y-9069670D02*
X17893760Y-9069670D01*
X17848760Y-9104670D02*
X17848760Y-9104670D01*
X17848760Y-9034670D02*
X17848760Y-9034670D01*
X17848760Y-9104670D02*
G75*
G03X17848760Y-9034670I0J35000D01*
G01*
X17848760Y-9034670D02*
G75*
G03X17848760Y-9104670I0J-35000D01*
G01*
X17848760Y-9225330D02*
X17848760Y-9315330D01*
X17803760Y-9270330D02*
X17893760Y-9270330D01*
X17848760Y-9305330D02*
X17848760Y-9305330D01*
X17848760Y-9235330D02*
X17848760Y-9235330D01*
X17848760Y-9305330D02*
G75*
G03X17848760Y-9235330I0J35000D01*
G01*
X17848760Y-9235330D02*
G75*
G03X17848760Y-9305330I0J-35000D01*
G01*
X9674921Y-12957921D02*
X9674921Y-12886079D01*
X9603079Y-12886079D01*
X9603079Y-12957921D01*
X9674921Y-12957921D01*
X9674921Y-13211921D02*
X9674921Y-13140079D01*
X9603079Y-13140079D01*
X9603079Y-13211921D01*
X9674921Y-13211921D01*
X10424921Y-14413921D02*
X10424921Y-14342079D01*
X10353079Y-14342079D01*
X10353079Y-14413921D01*
X10424921Y-14413921D01*
X10424921Y-14667921D02*
X10424921Y-14596079D01*
X10353079Y-14596079D01*
X10353079Y-14667921D01*
X10424921Y-14667921D01*
X11476921Y-5933921D02*
X11476921Y-5862079D01*
X11405079Y-5862079D01*
X11405079Y-5933921D01*
X11476921Y-5933921D01*
X11476921Y-9134921D02*
X11476921Y-9063079D01*
X11405079Y-9063079D01*
X11405079Y-9134921D01*
X11476921Y-9134921D01*
X11730921Y-5933921D02*
X11730921Y-5862079D01*
X11659079Y-5862079D01*
X11659079Y-5933921D01*
X11730921Y-5933921D01*
X11730921Y-9134921D02*
X11730921Y-9063079D01*
X11659079Y-9063079D01*
X11659079Y-9134921D01*
X11730921Y-9134921D01*
X11984921Y-5933921D02*
X11984921Y-5862079D01*
X11913079Y-5862079D01*
X11913079Y-5933921D01*
X11984921Y-5933921D01*
X11984921Y-9134921D02*
X11984921Y-9063079D01*
X11913079Y-9063079D01*
X11913079Y-9134921D01*
X11984921Y-9134921D01*
X12238921Y-5933921D02*
X12238921Y-5862079D01*
X12167079Y-5862079D01*
X12167079Y-5933921D01*
X12238921Y-5933921D01*
X12238921Y-9134921D02*
X12238921Y-9063079D01*
X12167079Y-9063079D01*
X12167079Y-9134921D01*
X12238921Y-9134921D01*
X13074921Y-12643921D02*
X13074921Y-12572079D01*
X13003079Y-12572079D01*
X13003079Y-12643921D01*
X13074921Y-12643921D01*
X13074921Y-12897921D02*
X13074921Y-12826079D01*
X13003079Y-12826079D01*
X13003079Y-12897921D01*
X13074921Y-12897921D01*
X13074921Y-13151921D02*
X13074921Y-13080079D01*
X13003079Y-13080079D01*
X13003079Y-13151921D01*
X13074921Y-13151921D01*
X13074921Y-13405921D02*
X13074921Y-13334079D01*
X13003079Y-13334079D01*
X13003079Y-13405921D01*
X13074921Y-13405921D01*
X13074921Y-13659921D02*
X13074921Y-13588079D01*
X13003079Y-13588079D01*
X13003079Y-13659921D01*
X13074921Y-13659921D01*
X13074921Y-13913921D02*
X13074921Y-13842079D01*
X13003079Y-13842079D01*
X13003079Y-13913921D01*
X13074921Y-13913921D01*
X13074921Y-14167921D02*
X13074921Y-14096079D01*
X13003079Y-14096079D01*
X13003079Y-14167921D01*
X13074921Y-14167921D01*
X13196921Y-6303921D02*
X13196921Y-6232079D01*
X13125079Y-6232079D01*
X13125079Y-6303921D01*
X13196921Y-6303921D01*
X13196921Y-6557921D02*
X13196921Y-6486079D01*
X13125079Y-6486079D01*
X13125079Y-6557921D01*
X13196921Y-6557921D01*
X13196921Y-6811921D02*
X13196921Y-6740079D01*
X13125079Y-6740079D01*
X13125079Y-6811921D01*
X13196921Y-6811921D01*
X13196921Y-7065921D02*
X13196921Y-6994079D01*
X13125079Y-6994079D01*
X13125079Y-7065921D01*
X13196921Y-7065921D01*
X13196921Y-7319921D02*
X13196921Y-7248079D01*
X13125079Y-7248079D01*
X13125079Y-7319921D01*
X13196921Y-7319921D01*
X13196921Y-7573921D02*
X13196921Y-7502079D01*
X13125079Y-7502079D01*
X13125079Y-7573921D01*
X13196921Y-7573921D01*
X13196921Y-7827921D02*
X13196921Y-7756079D01*
X13125079Y-7756079D01*
X13125079Y-7827921D01*
X13196921Y-7827921D01*
X13196921Y-9504921D02*
X13196921Y-9433079D01*
X13125079Y-9433079D01*
X13125079Y-9504921D01*
X13196921Y-9504921D01*
X13196921Y-9758921D02*
X13196921Y-9687079D01*
X13125079Y-9687079D01*
X13125079Y-9758921D01*
X13196921Y-9758921D01*
X13196921Y-10012921D02*
X13196921Y-9941079D01*
X13125079Y-9941079D01*
X13125079Y-10012921D01*
X13196921Y-10012921D01*
X13196921Y-10266921D02*
X13196921Y-10195079D01*
X13125079Y-10195079D01*
X13125079Y-10266921D01*
X13196921Y-10266921D01*
X13196921Y-10520921D02*
X13196921Y-10449079D01*
X13125079Y-10449079D01*
X13125079Y-10520921D01*
X13196921Y-10520921D01*
X13196921Y-10774921D02*
X13196921Y-10703079D01*
X13125079Y-10703079D01*
X13125079Y-10774921D01*
X13196921Y-10774921D01*
X13196921Y-11028921D02*
X13196921Y-10957079D01*
X13125079Y-10957079D01*
X13125079Y-11028921D01*
X13196921Y-11028921D01*
X14032921Y-14537921D02*
X14032921Y-14466079D01*
X13961079Y-14466079D01*
X13961079Y-14537921D01*
X14032921Y-14537921D01*
X14286921Y-14537921D02*
X14286921Y-14466079D01*
X14215079Y-14466079D01*
X14215079Y-14537921D01*
X14286921Y-14537921D01*
X14540921Y-14537921D02*
X14540921Y-14466079D01*
X14469079Y-14466079D01*
X14469079Y-14537921D01*
X14540921Y-14537921D01*
X14794921Y-14537921D02*
X14794921Y-14466079D01*
X14723079Y-14466079D01*
X14723079Y-14537921D01*
X14794921Y-14537921D01*
X15846921Y-5803921D02*
X15846921Y-5732079D01*
X15775079Y-5732079D01*
X15775079Y-5803921D01*
X15846921Y-5803921D01*
X15846921Y-6057921D02*
X15846921Y-5986079D01*
X15775079Y-5986079D01*
X15775079Y-6057921D01*
X15846921Y-6057921D01*
X15846921Y-9004921D02*
X15846921Y-8933079D01*
X15775079Y-8933079D01*
X15775079Y-9004921D01*
X15846921Y-9004921D01*
X15846921Y-9258921D02*
X15846921Y-9187079D01*
X15775079Y-9187079D01*
X15775079Y-9258921D01*
X15846921Y-9258921D01*
X16596921Y-7259921D02*
X16596921Y-7188079D01*
X16525079Y-7188079D01*
X16525079Y-7259921D01*
X16596921Y-7259921D01*
X16596921Y-7513921D02*
X16596921Y-7442079D01*
X16525079Y-7442079D01*
X16525079Y-7513921D01*
X16596921Y-7513921D01*
X16596921Y-10460921D02*
X16596921Y-10389079D01*
X16525079Y-10389079D01*
X16525079Y-10460921D01*
X16596921Y-10460921D01*
X16596921Y-10714921D02*
X16596921Y-10643079D01*
X16525079Y-10643079D01*
X16525079Y-10714921D01*
X16596921Y-10714921D01*
X9133000Y-6561000D02*
X9263000Y-6431000D01*
X9133000Y-6301000D01*
X9003000Y-6431000D01*
X9133000Y-6561000D01*
X9133000Y-7701000D02*
X9263000Y-7571000D01*
X9133000Y-7441000D01*
X9003000Y-7571000D01*
X9133000Y-7701000D01*
X9133000Y-9762000D02*
X9263000Y-9632000D01*
X9133000Y-9502000D01*
X9003000Y-9632000D01*
X9133000Y-9762000D01*
X9133000Y-10902000D02*
X9263000Y-10772000D01*
X9133000Y-10642000D01*
X9003000Y-10772000D01*
X9133000Y-10902000D01*
X17067000Y-12959000D02*
X17197000Y-12829000D01*
X17067000Y-12699000D01*
X16937000Y-12829000D01*
X17067000Y-12959000D01*
X17067000Y-14099000D02*
X17197000Y-13969000D01*
X17067000Y-13839000D01*
X16937000Y-13969000D01*
X17067000Y-14099000D01*
D13*
X8378928Y-15375214D02*
X8378928Y-15075214D01*
X8450357Y-15075214D01*
X8493214Y-15089500D01*
X8521786Y-15118071D01*
X8536071Y-15146643D01*
X8550357Y-15203786D01*
X8550357Y-15246643D01*
X8536071Y-15303786D01*
X8521786Y-15332357D01*
X8493214Y-15360929D01*
X8450357Y-15375214D01*
X8378928Y-15375214D01*
X8678928Y-15375214D02*
X8678928Y-15175214D01*
X8678928Y-15232357D02*
X8693214Y-15203786D01*
X8707500Y-15189500D01*
X8736071Y-15175214D01*
X8764643Y-15175214D01*
X8864643Y-15375214D02*
X8864643Y-15175214D01*
X8864643Y-15075214D02*
X8850357Y-15089500D01*
X8864643Y-15103786D01*
X8878928Y-15089500D01*
X8864643Y-15075214D01*
X8864643Y-15103786D01*
X9050357Y-15375214D02*
X9021786Y-15360929D01*
X9007500Y-15332357D01*
X9007500Y-15075214D01*
X9207500Y-15375214D02*
X9178928Y-15360929D01*
X9164643Y-15332357D01*
X9164643Y-15075214D01*
X9550357Y-15375214D02*
X9550357Y-15075214D01*
X9650357Y-15289500D01*
X9750357Y-15075214D01*
X9750357Y-15375214D01*
X10021786Y-15375214D02*
X10021786Y-15218071D01*
X10007500Y-15189500D01*
X9978928Y-15175214D01*
X9921786Y-15175214D01*
X9893214Y-15189500D01*
X10021786Y-15360929D02*
X9993214Y-15375214D01*
X9921786Y-15375214D01*
X9893214Y-15360929D01*
X9878928Y-15332357D01*
X9878928Y-15303786D01*
X9893214Y-15275214D01*
X9921786Y-15260929D01*
X9993214Y-15260929D01*
X10021786Y-15246643D01*
X10164643Y-15175214D02*
X10164643Y-15475214D01*
X10164643Y-15189500D02*
X10193214Y-15175214D01*
X10250357Y-15175214D01*
X10278928Y-15189500D01*
X10293214Y-15203786D01*
X10307500Y-15232357D01*
X10307500Y-15318071D01*
X10293214Y-15346643D01*
X10278928Y-15360929D01*
X10250357Y-15375214D01*
X10193214Y-15375214D01*
X10164643Y-15360929D01*
X10436071Y-15346643D02*
X10450357Y-15360929D01*
X10436071Y-15375214D01*
X10421786Y-15360929D01*
X10436071Y-15346643D01*
X10436071Y-15375214D01*
X10436071Y-15189500D02*
X10450357Y-15203786D01*
X10436071Y-15218071D01*
X10421786Y-15203786D01*
X10436071Y-15189500D01*
X10436071Y-15218071D01*
X8052500Y-15849500D02*
X8092500Y-15889500D01*
X8092500Y-15849500D02*
X8052500Y-15889500D01*
X8436071Y-15705214D02*
X8464643Y-15705214D01*
X8493214Y-15719500D01*
X8507500Y-15733786D01*
X8521786Y-15762357D01*
X8536071Y-15819500D01*
X8536071Y-15890929D01*
X8521786Y-15948071D01*
X8507500Y-15976643D01*
X8493214Y-15990929D01*
X8464643Y-16005214D01*
X8436071Y-16005214D01*
X8407500Y-15990929D01*
X8393214Y-15976643D01*
X8378928Y-15948071D01*
X8364643Y-15890929D01*
X8364643Y-15819500D01*
X8378928Y-15762357D01*
X8393214Y-15733786D01*
X8407500Y-15719500D01*
X8436071Y-15705214D01*
X8664643Y-15976643D02*
X8678928Y-15990929D01*
X8664643Y-16005214D01*
X8650357Y-15990929D01*
X8664643Y-15976643D01*
X8664643Y-16005214D01*
X8936071Y-15805214D02*
X8936071Y-16005214D01*
X8864643Y-15690929D02*
X8793214Y-15905214D01*
X8978928Y-15905214D01*
X9150357Y-15705214D02*
X9178928Y-15705214D01*
X9207500Y-15719500D01*
X9221786Y-15733786D01*
X9236071Y-15762357D01*
X9250357Y-15819500D01*
X9250357Y-15890929D01*
X9236071Y-15948071D01*
X9221786Y-15976643D01*
X9207500Y-15990929D01*
X9178928Y-16005214D01*
X9150357Y-16005214D01*
X9121786Y-15990929D01*
X9107500Y-15976643D01*
X9093214Y-15948071D01*
X9078928Y-15890929D01*
X9078928Y-15819500D01*
X9093214Y-15762357D01*
X9107500Y-15733786D01*
X9121786Y-15719500D01*
X9150357Y-15705214D01*
X9378928Y-16005214D02*
X9378928Y-15805214D01*
X9378928Y-15833786D02*
X9393214Y-15819500D01*
X9421786Y-15805214D01*
X9464643Y-15805214D01*
X9493214Y-15819500D01*
X9507500Y-15848071D01*
X9507500Y-16005214D01*
X9507500Y-15848071D02*
X9521786Y-15819500D01*
X9550357Y-15805214D01*
X9593214Y-15805214D01*
X9621786Y-15819500D01*
X9636071Y-15848071D01*
X9636071Y-16005214D01*
X9778928Y-16005214D02*
X9778928Y-15805214D01*
X9778928Y-15833786D02*
X9793214Y-15819500D01*
X9821786Y-15805214D01*
X9864643Y-15805214D01*
X9893214Y-15819500D01*
X9907500Y-15848071D01*
X9907500Y-16005214D01*
X9907500Y-15848071D02*
X9921786Y-15819500D01*
X9950357Y-15805214D01*
X9993214Y-15805214D01*
X10021786Y-15819500D01*
X10036071Y-15848071D01*
X10036071Y-16005214D01*
X10621786Y-15690929D02*
X10364643Y-16076643D01*
X11007500Y-15705214D02*
X11036071Y-15705214D01*
X11064643Y-15719500D01*
X11078928Y-15733786D01*
X11093214Y-15762357D01*
X11107500Y-15819500D01*
X11107500Y-15890929D01*
X11093214Y-15948071D01*
X11078928Y-15976643D01*
X11064643Y-15990929D01*
X11036071Y-16005214D01*
X11007500Y-16005214D01*
X10978928Y-15990929D01*
X10964643Y-15976643D01*
X10950357Y-15948071D01*
X10936071Y-15890929D01*
X10936071Y-15819500D01*
X10950357Y-15762357D01*
X10964643Y-15733786D01*
X10978928Y-15719500D01*
X11007500Y-15705214D01*
X11236071Y-15976643D02*
X11250357Y-15990929D01*
X11236071Y-16005214D01*
X11221786Y-15990929D01*
X11236071Y-15976643D01*
X11236071Y-16005214D01*
X11436071Y-15705214D02*
X11464643Y-15705214D01*
X11493214Y-15719500D01*
X11507500Y-15733786D01*
X11521786Y-15762357D01*
X11536071Y-15819500D01*
X11536071Y-15890929D01*
X11521786Y-15948071D01*
X11507500Y-15976643D01*
X11493214Y-15990929D01*
X11464643Y-16005214D01*
X11436071Y-16005214D01*
X11407500Y-15990929D01*
X11393214Y-15976643D01*
X11378928Y-15948071D01*
X11364643Y-15890929D01*
X11364643Y-15819500D01*
X11378928Y-15762357D01*
X11393214Y-15733786D01*
X11407500Y-15719500D01*
X11436071Y-15705214D01*
X11821786Y-16005214D02*
X11650357Y-16005214D01*
X11736071Y-16005214D02*
X11736071Y-15705214D01*
X11707500Y-15748071D01*
X11678928Y-15776643D01*
X11650357Y-15790929D01*
X12078928Y-15705214D02*
X12021786Y-15705214D01*
X11993214Y-15719500D01*
X11978928Y-15733786D01*
X11950357Y-15776643D01*
X11936071Y-15833786D01*
X11936071Y-15948071D01*
X11950357Y-15976643D01*
X11964643Y-15990929D01*
X11993214Y-16005214D01*
X12050357Y-16005214D01*
X12078928Y-15990929D01*
X12093214Y-15976643D01*
X12107500Y-15948071D01*
X12107500Y-15876643D01*
X12093214Y-15848071D01*
X12078928Y-15833786D01*
X12050357Y-15819500D01*
X11993214Y-15819500D01*
X11964643Y-15833786D01*
X11950357Y-15848071D01*
X11936071Y-15876643D01*
X12221786Y-15705214D02*
X12221786Y-15762357D01*
X12336071Y-15705214D02*
X12336071Y-15762357D01*
X12778928Y-16119500D02*
X12764643Y-16105214D01*
X12736071Y-16062357D01*
X12721786Y-16033786D01*
X12707500Y-15990929D01*
X12693214Y-15919500D01*
X12693214Y-15862357D01*
X12707500Y-15790929D01*
X12721786Y-15748071D01*
X12736071Y-15719500D01*
X12764643Y-15676643D01*
X12778928Y-15662357D01*
X12864643Y-15705214D02*
X13050357Y-15705214D01*
X12950357Y-15819500D01*
X12993214Y-15819500D01*
X13021786Y-15833786D01*
X13036071Y-15848071D01*
X13050357Y-15876643D01*
X13050357Y-15948071D01*
X13036071Y-15976643D01*
X13021786Y-15990929D01*
X12993214Y-16005214D01*
X12907500Y-16005214D01*
X12878928Y-15990929D01*
X12864643Y-15976643D01*
X13236071Y-15705214D02*
X13264643Y-15705214D01*
X13293214Y-15719500D01*
X13307500Y-15733786D01*
X13321786Y-15762357D01*
X13336071Y-15819500D01*
X13336071Y-15890929D01*
X13321786Y-15948071D01*
X13307500Y-15976643D01*
X13293214Y-15990929D01*
X13264643Y-16005214D01*
X13236071Y-16005214D01*
X13207500Y-15990929D01*
X13193214Y-15976643D01*
X13178928Y-15948071D01*
X13164643Y-15890929D01*
X13164643Y-15819500D01*
X13178928Y-15762357D01*
X13193214Y-15733786D01*
X13207500Y-15719500D01*
X13236071Y-15705214D01*
X13436071Y-15705214D02*
X13621786Y-15705214D01*
X13521786Y-15819500D01*
X13564643Y-15819500D01*
X13593214Y-15833786D01*
X13607500Y-15848071D01*
X13621786Y-15876643D01*
X13621786Y-15948071D01*
X13607500Y-15976643D01*
X13593214Y-15990929D01*
X13564643Y-16005214D01*
X13478928Y-16005214D01*
X13450357Y-15990929D01*
X13436071Y-15976643D01*
X13978928Y-16005214D02*
X13978928Y-15705214D01*
X14107500Y-16005214D02*
X14107500Y-15848071D01*
X14093214Y-15819500D01*
X14064643Y-15805214D01*
X14021786Y-15805214D01*
X13993214Y-15819500D01*
X13978928Y-15833786D01*
X14293214Y-16005214D02*
X14264643Y-15990929D01*
X14250357Y-15976643D01*
X14236071Y-15948071D01*
X14236071Y-15862357D01*
X14250357Y-15833786D01*
X14264643Y-15819500D01*
X14293214Y-15805214D01*
X14336071Y-15805214D01*
X14364643Y-15819500D01*
X14378928Y-15833786D01*
X14393214Y-15862357D01*
X14393214Y-15948071D01*
X14378928Y-15976643D01*
X14364643Y-15990929D01*
X14336071Y-16005214D01*
X14293214Y-16005214D01*
X14564643Y-16005214D02*
X14536071Y-15990929D01*
X14521786Y-15962357D01*
X14521786Y-15705214D01*
X14793214Y-15990929D02*
X14764643Y-16005214D01*
X14707500Y-16005214D01*
X14678928Y-15990929D01*
X14664643Y-15962357D01*
X14664643Y-15848071D01*
X14678928Y-15819500D01*
X14707500Y-15805214D01*
X14764643Y-15805214D01*
X14793214Y-15819500D01*
X14807500Y-15848071D01*
X14807500Y-15876643D01*
X14664643Y-15905214D01*
X14921786Y-15990929D02*
X14950357Y-16005214D01*
X15007500Y-16005214D01*
X15036071Y-15990929D01*
X15050357Y-15962357D01*
X15050357Y-15948071D01*
X15036071Y-15919500D01*
X15007500Y-15905214D01*
X14964643Y-15905214D01*
X14936071Y-15890929D01*
X14921786Y-15862357D01*
X14921786Y-15848071D01*
X14936071Y-15819500D01*
X14964643Y-15805214D01*
X15007500Y-15805214D01*
X15036071Y-15819500D01*
X15150357Y-16119500D02*
X15164643Y-16105214D01*
X15193214Y-16062357D01*
X15207500Y-16033786D01*
X15221786Y-15990929D01*
X15236071Y-15919500D01*
X15236071Y-15862357D01*
X15221786Y-15790929D01*
X15207500Y-15748071D01*
X15193214Y-15719500D01*
X15164643Y-15676643D01*
X15150357Y-15662357D01*
X8092500Y-16265500D02*
G75*
G03X8092500Y-16265500I-38100J0D01*
G01*
X8436071Y-16101214D02*
X8464643Y-16101214D01*
X8493214Y-16115500D01*
X8507500Y-16129786D01*
X8521786Y-16158357D01*
X8536071Y-16215500D01*
X8536071Y-16286929D01*
X8521786Y-16344071D01*
X8507500Y-16372643D01*
X8493214Y-16386929D01*
X8464643Y-16401214D01*
X8436071Y-16401214D01*
X8407500Y-16386929D01*
X8393214Y-16372643D01*
X8378928Y-16344071D01*
X8364643Y-16286929D01*
X8364643Y-16215500D01*
X8378928Y-16158357D01*
X8393214Y-16129786D01*
X8407500Y-16115500D01*
X8436071Y-16101214D01*
X8664643Y-16372643D02*
X8678928Y-16386929D01*
X8664643Y-16401214D01*
X8650357Y-16386929D01*
X8664643Y-16372643D01*
X8664643Y-16401214D01*
X8778928Y-16101214D02*
X8978928Y-16101214D01*
X8850357Y-16401214D01*
X9221786Y-16101214D02*
X9164643Y-16101214D01*
X9136071Y-16115500D01*
X9121786Y-16129786D01*
X9093214Y-16172643D01*
X9078928Y-16229786D01*
X9078928Y-16344071D01*
X9093214Y-16372643D01*
X9107500Y-16386929D01*
X9136071Y-16401214D01*
X9193214Y-16401214D01*
X9221786Y-16386929D01*
X9236071Y-16372643D01*
X9250357Y-16344071D01*
X9250357Y-16272643D01*
X9236071Y-16244071D01*
X9221786Y-16229786D01*
X9193214Y-16215500D01*
X9136071Y-16215500D01*
X9107500Y-16229786D01*
X9093214Y-16244071D01*
X9078928Y-16272643D01*
X9378928Y-16401214D02*
X9378928Y-16201214D01*
X9378928Y-16229786D02*
X9393214Y-16215500D01*
X9421786Y-16201214D01*
X9464643Y-16201214D01*
X9493214Y-16215500D01*
X9507500Y-16244071D01*
X9507500Y-16401214D01*
X9507500Y-16244071D02*
X9521786Y-16215500D01*
X9550357Y-16201214D01*
X9593214Y-16201214D01*
X9621786Y-16215500D01*
X9636071Y-16244071D01*
X9636071Y-16401214D01*
X9778928Y-16401214D02*
X9778928Y-16201214D01*
X9778928Y-16229786D02*
X9793214Y-16215500D01*
X9821786Y-16201214D01*
X9864643Y-16201214D01*
X9893214Y-16215500D01*
X9907500Y-16244071D01*
X9907500Y-16401214D01*
X9907500Y-16244071D02*
X9921786Y-16215500D01*
X9950357Y-16201214D01*
X9993214Y-16201214D01*
X10021786Y-16215500D01*
X10036071Y-16244071D01*
X10036071Y-16401214D01*
X10621786Y-16086929D02*
X10364643Y-16472643D01*
X11007500Y-16101214D02*
X11036071Y-16101214D01*
X11064643Y-16115500D01*
X11078928Y-16129786D01*
X11093214Y-16158357D01*
X11107500Y-16215500D01*
X11107500Y-16286929D01*
X11093214Y-16344071D01*
X11078928Y-16372643D01*
X11064643Y-16386929D01*
X11036071Y-16401214D01*
X11007500Y-16401214D01*
X10978928Y-16386929D01*
X10964643Y-16372643D01*
X10950357Y-16344071D01*
X10936071Y-16286929D01*
X10936071Y-16215500D01*
X10950357Y-16158357D01*
X10964643Y-16129786D01*
X10978928Y-16115500D01*
X11007500Y-16101214D01*
X11236071Y-16372643D02*
X11250357Y-16386929D01*
X11236071Y-16401214D01*
X11221786Y-16386929D01*
X11236071Y-16372643D01*
X11236071Y-16401214D01*
X11436071Y-16101214D02*
X11464643Y-16101214D01*
X11493214Y-16115500D01*
X11507500Y-16129786D01*
X11521786Y-16158357D01*
X11536071Y-16215500D01*
X11536071Y-16286929D01*
X11521786Y-16344071D01*
X11507500Y-16372643D01*
X11493214Y-16386929D01*
X11464643Y-16401214D01*
X11436071Y-16401214D01*
X11407500Y-16386929D01*
X11393214Y-16372643D01*
X11378928Y-16344071D01*
X11364643Y-16286929D01*
X11364643Y-16215500D01*
X11378928Y-16158357D01*
X11393214Y-16129786D01*
X11407500Y-16115500D01*
X11436071Y-16101214D01*
X11636071Y-16101214D02*
X11821786Y-16101214D01*
X11721786Y-16215500D01*
X11764643Y-16215500D01*
X11793214Y-16229786D01*
X11807500Y-16244071D01*
X11821786Y-16272643D01*
X11821786Y-16344071D01*
X11807500Y-16372643D01*
X11793214Y-16386929D01*
X11764643Y-16401214D01*
X11678928Y-16401214D01*
X11650357Y-16386929D01*
X11636071Y-16372643D01*
X12007500Y-16101214D02*
X12036071Y-16101214D01*
X12064643Y-16115500D01*
X12078928Y-16129786D01*
X12093214Y-16158357D01*
X12107500Y-16215500D01*
X12107500Y-16286929D01*
X12093214Y-16344071D01*
X12078928Y-16372643D01*
X12064643Y-16386929D01*
X12036071Y-16401214D01*
X12007500Y-16401214D01*
X11978928Y-16386929D01*
X11964643Y-16372643D01*
X11950357Y-16344071D01*
X11936071Y-16286929D01*
X11936071Y-16215500D01*
X11950357Y-16158357D01*
X11964643Y-16129786D01*
X11978928Y-16115500D01*
X12007500Y-16101214D01*
X12221786Y-16101214D02*
X12221786Y-16158357D01*
X12336071Y-16101214D02*
X12336071Y-16158357D01*
X12778928Y-16515500D02*
X12764643Y-16501214D01*
X12736071Y-16458357D01*
X12721786Y-16429786D01*
X12707500Y-16386929D01*
X12693214Y-16315500D01*
X12693214Y-16258357D01*
X12707500Y-16186929D01*
X12721786Y-16144071D01*
X12736071Y-16115500D01*
X12764643Y-16072643D01*
X12778928Y-16058357D01*
X13021786Y-16101214D02*
X12964643Y-16101214D01*
X12936071Y-16115500D01*
X12921786Y-16129786D01*
X12893214Y-16172643D01*
X12878928Y-16229786D01*
X12878928Y-16344071D01*
X12893214Y-16372643D01*
X12907500Y-16386929D01*
X12936071Y-16401214D01*
X12993214Y-16401214D01*
X13021786Y-16386929D01*
X13036071Y-16372643D01*
X13050357Y-16344071D01*
X13050357Y-16272643D01*
X13036071Y-16244071D01*
X13021786Y-16229786D01*
X12993214Y-16215500D01*
X12936071Y-16215500D01*
X12907500Y-16229786D01*
X12893214Y-16244071D01*
X12878928Y-16272643D01*
X13307500Y-16101214D02*
X13250357Y-16101214D01*
X13221786Y-16115500D01*
X13207500Y-16129786D01*
X13178928Y-16172643D01*
X13164643Y-16229786D01*
X13164643Y-16344071D01*
X13178928Y-16372643D01*
X13193214Y-16386929D01*
X13221786Y-16401214D01*
X13278928Y-16401214D01*
X13307500Y-16386929D01*
X13321786Y-16372643D01*
X13336071Y-16344071D01*
X13336071Y-16272643D01*
X13321786Y-16244071D01*
X13307500Y-16229786D01*
X13278928Y-16215500D01*
X13221786Y-16215500D01*
X13193214Y-16229786D01*
X13178928Y-16244071D01*
X13164643Y-16272643D01*
X13693214Y-16401214D02*
X13693214Y-16101214D01*
X13821786Y-16401214D02*
X13821786Y-16244071D01*
X13807500Y-16215500D01*
X13778928Y-16201214D01*
X13736071Y-16201214D01*
X13707500Y-16215500D01*
X13693214Y-16229786D01*
X14007500Y-16401214D02*
X13978928Y-16386929D01*
X13964643Y-16372643D01*
X13950357Y-16344071D01*
X13950357Y-16258357D01*
X13964643Y-16229786D01*
X13978928Y-16215500D01*
X14007500Y-16201214D01*
X14050357Y-16201214D01*
X14078928Y-16215500D01*
X14093214Y-16229786D01*
X14107500Y-16258357D01*
X14107500Y-16344071D01*
X14093214Y-16372643D01*
X14078928Y-16386929D01*
X14050357Y-16401214D01*
X14007500Y-16401214D01*
X14278928Y-16401214D02*
X14250357Y-16386929D01*
X14236071Y-16358357D01*
X14236071Y-16101214D01*
X14507500Y-16386929D02*
X14478928Y-16401214D01*
X14421786Y-16401214D01*
X14393214Y-16386929D01*
X14378928Y-16358357D01*
X14378928Y-16244071D01*
X14393214Y-16215500D01*
X14421786Y-16201214D01*
X14478928Y-16201214D01*
X14507500Y-16215500D01*
X14521786Y-16244071D01*
X14521786Y-16272643D01*
X14378928Y-16301214D01*
X14636071Y-16386929D02*
X14664643Y-16401214D01*
X14721786Y-16401214D01*
X14750357Y-16386929D01*
X14764643Y-16358357D01*
X14764643Y-16344071D01*
X14750357Y-16315500D01*
X14721786Y-16301214D01*
X14678928Y-16301214D01*
X14650357Y-16286929D01*
X14636071Y-16258357D01*
X14636071Y-16244071D01*
X14650357Y-16215500D01*
X14678928Y-16201214D01*
X14721786Y-16201214D01*
X14750357Y-16215500D01*
X14864643Y-16515500D02*
X14878928Y-16501214D01*
X14907500Y-16458357D01*
X14921786Y-16429786D01*
X14936071Y-16386929D01*
X14950357Y-16315500D01*
X14950357Y-16258357D01*
X14936071Y-16186929D01*
X14921786Y-16144071D01*
X14907500Y-16115500D01*
X14878928Y-16072643D01*
X14864643Y-16058357D01*
X8047500Y-16616500D02*
X8047500Y-16706500D01*
X8002500Y-16661500D02*
X8092500Y-16661500D01*
X8436071Y-16497214D02*
X8464643Y-16497214D01*
X8493214Y-16511500D01*
X8507500Y-16525786D01*
X8521786Y-16554357D01*
X8536071Y-16611500D01*
X8536071Y-16682929D01*
X8521786Y-16740071D01*
X8507500Y-16768643D01*
X8493214Y-16782929D01*
X8464643Y-16797214D01*
X8436071Y-16797214D01*
X8407500Y-16782929D01*
X8393214Y-16768643D01*
X8378928Y-16740071D01*
X8364643Y-16682929D01*
X8364643Y-16611500D01*
X8378928Y-16554357D01*
X8393214Y-16525786D01*
X8407500Y-16511500D01*
X8436071Y-16497214D01*
X8664643Y-16768643D02*
X8678928Y-16782929D01*
X8664643Y-16797214D01*
X8650357Y-16782929D01*
X8664643Y-16768643D01*
X8664643Y-16797214D01*
X8821786Y-16797214D02*
X8878928Y-16797214D01*
X8907500Y-16782929D01*
X8921786Y-16768643D01*
X8950357Y-16725786D01*
X8964643Y-16668643D01*
X8964643Y-16554357D01*
X8950357Y-16525786D01*
X8936071Y-16511500D01*
X8907500Y-16497214D01*
X8850357Y-16497214D01*
X8821786Y-16511500D01*
X8807500Y-16525786D01*
X8793214Y-16554357D01*
X8793214Y-16625786D01*
X8807500Y-16654357D01*
X8821786Y-16668643D01*
X8850357Y-16682929D01*
X8907500Y-16682929D01*
X8936071Y-16668643D01*
X8950357Y-16654357D01*
X8964643Y-16625786D01*
X9150357Y-16497214D02*
X9178928Y-16497214D01*
X9207500Y-16511500D01*
X9221786Y-16525786D01*
X9236071Y-16554357D01*
X9250357Y-16611500D01*
X9250357Y-16682929D01*
X9236071Y-16740071D01*
X9221786Y-16768643D01*
X9207500Y-16782929D01*
X9178928Y-16797214D01*
X9150357Y-16797214D01*
X9121786Y-16782929D01*
X9107500Y-16768643D01*
X9093214Y-16740071D01*
X9078928Y-16682929D01*
X9078928Y-16611500D01*
X9093214Y-16554357D01*
X9107500Y-16525786D01*
X9121786Y-16511500D01*
X9150357Y-16497214D01*
X9378928Y-16797214D02*
X9378928Y-16597214D01*
X9378928Y-16625786D02*
X9393214Y-16611500D01*
X9421786Y-16597214D01*
X9464643Y-16597214D01*
X9493214Y-16611500D01*
X9507500Y-16640071D01*
X9507500Y-16797214D01*
X9507500Y-16640071D02*
X9521786Y-16611500D01*
X9550357Y-16597214D01*
X9593214Y-16597214D01*
X9621786Y-16611500D01*
X9636071Y-16640071D01*
X9636071Y-16797214D01*
X9778928Y-16797214D02*
X9778928Y-16597214D01*
X9778928Y-16625786D02*
X9793214Y-16611500D01*
X9821786Y-16597214D01*
X9864643Y-16597214D01*
X9893214Y-16611500D01*
X9907500Y-16640071D01*
X9907500Y-16797214D01*
X9907500Y-16640071D02*
X9921786Y-16611500D01*
X9950357Y-16597214D01*
X9993214Y-16597214D01*
X10021786Y-16611500D01*
X10036071Y-16640071D01*
X10036071Y-16797214D01*
X10621786Y-16482929D02*
X10364643Y-16868643D01*
X11007500Y-16497214D02*
X11036071Y-16497214D01*
X11064643Y-16511500D01*
X11078928Y-16525786D01*
X11093214Y-16554357D01*
X11107500Y-16611500D01*
X11107500Y-16682929D01*
X11093214Y-16740071D01*
X11078928Y-16768643D01*
X11064643Y-16782929D01*
X11036071Y-16797214D01*
X11007500Y-16797214D01*
X10978928Y-16782929D01*
X10964643Y-16768643D01*
X10950357Y-16740071D01*
X10936071Y-16682929D01*
X10936071Y-16611500D01*
X10950357Y-16554357D01*
X10964643Y-16525786D01*
X10978928Y-16511500D01*
X11007500Y-16497214D01*
X11236071Y-16768643D02*
X11250357Y-16782929D01*
X11236071Y-16797214D01*
X11221786Y-16782929D01*
X11236071Y-16768643D01*
X11236071Y-16797214D01*
X11436071Y-16497214D02*
X11464643Y-16497214D01*
X11493214Y-16511500D01*
X11507500Y-16525786D01*
X11521786Y-16554357D01*
X11536071Y-16611500D01*
X11536071Y-16682929D01*
X11521786Y-16740071D01*
X11507500Y-16768643D01*
X11493214Y-16782929D01*
X11464643Y-16797214D01*
X11436071Y-16797214D01*
X11407500Y-16782929D01*
X11393214Y-16768643D01*
X11378928Y-16740071D01*
X11364643Y-16682929D01*
X11364643Y-16611500D01*
X11378928Y-16554357D01*
X11393214Y-16525786D01*
X11407500Y-16511500D01*
X11436071Y-16497214D01*
X11636071Y-16497214D02*
X11821786Y-16497214D01*
X11721786Y-16611500D01*
X11764643Y-16611500D01*
X11793214Y-16625786D01*
X11807500Y-16640071D01*
X11821786Y-16668643D01*
X11821786Y-16740071D01*
X11807500Y-16768643D01*
X11793214Y-16782929D01*
X11764643Y-16797214D01*
X11678928Y-16797214D01*
X11650357Y-16782929D01*
X11636071Y-16768643D01*
X12093214Y-16497214D02*
X11950357Y-16497214D01*
X11936071Y-16640071D01*
X11950357Y-16625786D01*
X11978928Y-16611500D01*
X12050357Y-16611500D01*
X12078928Y-16625786D01*
X12093214Y-16640071D01*
X12107500Y-16668643D01*
X12107500Y-16740071D01*
X12093214Y-16768643D01*
X12078928Y-16782929D01*
X12050357Y-16797214D01*
X11978928Y-16797214D01*
X11950357Y-16782929D01*
X11936071Y-16768643D01*
X12221786Y-16497214D02*
X12221786Y-16554357D01*
X12336071Y-16497214D02*
X12336071Y-16554357D01*
X12778928Y-16911500D02*
X12764643Y-16897214D01*
X12736071Y-16854357D01*
X12721786Y-16825786D01*
X12707500Y-16782929D01*
X12693214Y-16711500D01*
X12693214Y-16654357D01*
X12707500Y-16582929D01*
X12721786Y-16540071D01*
X12736071Y-16511500D01*
X12764643Y-16468643D01*
X12778928Y-16454357D01*
X12950357Y-16497214D02*
X12978928Y-16497214D01*
X13007500Y-16511500D01*
X13021786Y-16525786D01*
X13036071Y-16554357D01*
X13050357Y-16611500D01*
X13050357Y-16682929D01*
X13036071Y-16740071D01*
X13021786Y-16768643D01*
X13007500Y-16782929D01*
X12978928Y-16797214D01*
X12950357Y-16797214D01*
X12921786Y-16782929D01*
X12907500Y-16768643D01*
X12893214Y-16740071D01*
X12878928Y-16682929D01*
X12878928Y-16611500D01*
X12893214Y-16554357D01*
X12907500Y-16525786D01*
X12921786Y-16511500D01*
X12950357Y-16497214D01*
X13407500Y-16797214D02*
X13407500Y-16497214D01*
X13536071Y-16797214D02*
X13536071Y-16640071D01*
X13521786Y-16611500D01*
X13493214Y-16597214D01*
X13450357Y-16597214D01*
X13421786Y-16611500D01*
X13407500Y-16625786D01*
X13721786Y-16797214D02*
X13693214Y-16782929D01*
X13678928Y-16768643D01*
X13664643Y-16740071D01*
X13664643Y-16654357D01*
X13678928Y-16625786D01*
X13693214Y-16611500D01*
X13721786Y-16597214D01*
X13764643Y-16597214D01*
X13793214Y-16611500D01*
X13807500Y-16625786D01*
X13821786Y-16654357D01*
X13821786Y-16740071D01*
X13807500Y-16768643D01*
X13793214Y-16782929D01*
X13764643Y-16797214D01*
X13721786Y-16797214D01*
X13993214Y-16797214D02*
X13964643Y-16782929D01*
X13950357Y-16754357D01*
X13950357Y-16497214D01*
X14221786Y-16782929D02*
X14193214Y-16797214D01*
X14136071Y-16797214D01*
X14107500Y-16782929D01*
X14093214Y-16754357D01*
X14093214Y-16640071D01*
X14107500Y-16611500D01*
X14136071Y-16597214D01*
X14193214Y-16597214D01*
X14221786Y-16611500D01*
X14236071Y-16640071D01*
X14236071Y-16668643D01*
X14093214Y-16697214D01*
X14350357Y-16782929D02*
X14378928Y-16797214D01*
X14436071Y-16797214D01*
X14464643Y-16782929D01*
X14478928Y-16754357D01*
X14478928Y-16740071D01*
X14464643Y-16711500D01*
X14436071Y-16697214D01*
X14393214Y-16697214D01*
X14364643Y-16682929D01*
X14350357Y-16654357D01*
X14350357Y-16640071D01*
X14364643Y-16611500D01*
X14393214Y-16597214D01*
X14436071Y-16597214D01*
X14464643Y-16611500D01*
X14836071Y-16682929D02*
X15064643Y-16682929D01*
X14950357Y-16797214D02*
X14950357Y-16568643D01*
X15421786Y-16525786D02*
X15436071Y-16511500D01*
X15464643Y-16497214D01*
X15536071Y-16497214D01*
X15564643Y-16511500D01*
X15578928Y-16525786D01*
X15593214Y-16554357D01*
X15593214Y-16582929D01*
X15578928Y-16625786D01*
X15407500Y-16797214D01*
X15593214Y-16797214D01*
X15878928Y-16797214D02*
X15707500Y-16797214D01*
X15793214Y-16797214D02*
X15793214Y-16497214D01*
X15764643Y-16540071D01*
X15736071Y-16568643D01*
X15707500Y-16582929D01*
X16221786Y-16782929D02*
X16250357Y-16797214D01*
X16307500Y-16797214D01*
X16336071Y-16782929D01*
X16350357Y-16754357D01*
X16350357Y-16740071D01*
X16336071Y-16711500D01*
X16307500Y-16697214D01*
X16264643Y-16697214D01*
X16236071Y-16682929D01*
X16221786Y-16654357D01*
X16221786Y-16640071D01*
X16236071Y-16611500D01*
X16264643Y-16597214D01*
X16307500Y-16597214D01*
X16336071Y-16611500D01*
X16521786Y-16797214D02*
X16493214Y-16782929D01*
X16478928Y-16754357D01*
X16478928Y-16497214D01*
X16678928Y-16797214D02*
X16650357Y-16782929D01*
X16636071Y-16768643D01*
X16621786Y-16740071D01*
X16621786Y-16654357D01*
X16636071Y-16625786D01*
X16650357Y-16611500D01*
X16678928Y-16597214D01*
X16721786Y-16597214D01*
X16750357Y-16611500D01*
X16764643Y-16625786D01*
X16778928Y-16654357D01*
X16778928Y-16740071D01*
X16764643Y-16768643D01*
X16750357Y-16782929D01*
X16721786Y-16797214D01*
X16678928Y-16797214D01*
X16864643Y-16597214D02*
X16978928Y-16597214D01*
X16907500Y-16497214D02*
X16907500Y-16754357D01*
X16921786Y-16782929D01*
X16950357Y-16797214D01*
X16978928Y-16797214D01*
X17064643Y-16782929D02*
X17093214Y-16797214D01*
X17150357Y-16797214D01*
X17178928Y-16782929D01*
X17193214Y-16754357D01*
X17193214Y-16740071D01*
X17178928Y-16711500D01*
X17150357Y-16697214D01*
X17107500Y-16697214D01*
X17078928Y-16682929D01*
X17064643Y-16654357D01*
X17064643Y-16640071D01*
X17078928Y-16611500D01*
X17107500Y-16597214D01*
X17150357Y-16597214D01*
X17178928Y-16611500D01*
X17293214Y-16911500D02*
X17307500Y-16897214D01*
X17336071Y-16854357D01*
X17350357Y-16825786D01*
X17364643Y-16782929D01*
X17378928Y-16711500D01*
X17378928Y-16654357D01*
X17364643Y-16582929D01*
X17350357Y-16540071D01*
X17336071Y-16511500D01*
X17307500Y-16468643D01*
X17293214Y-16454357D01*
X8077621Y-17093422D02*
X8077621Y-17021579D01*
X8005778Y-17021579D01*
X8005778Y-17093422D01*
X8077621Y-17093422D01*
X8536071Y-17193214D02*
X8364643Y-17193214D01*
X8450357Y-17193214D02*
X8450357Y-16893214D01*
X8421786Y-16936072D01*
X8393214Y-16964643D01*
X8364643Y-16978929D01*
X8664643Y-17164643D02*
X8678928Y-17178929D01*
X8664643Y-17193214D01*
X8650357Y-17178929D01*
X8664643Y-17164643D01*
X8664643Y-17193214D01*
X8864643Y-16893214D02*
X8893214Y-16893214D01*
X8921786Y-16907500D01*
X8936071Y-16921786D01*
X8950357Y-16950357D01*
X8964643Y-17007500D01*
X8964643Y-17078929D01*
X8950357Y-17136072D01*
X8936071Y-17164643D01*
X8921786Y-17178929D01*
X8893214Y-17193214D01*
X8864643Y-17193214D01*
X8836071Y-17178929D01*
X8821786Y-17164643D01*
X8807500Y-17136072D01*
X8793214Y-17078929D01*
X8793214Y-17007500D01*
X8807500Y-16950357D01*
X8821786Y-16921786D01*
X8836071Y-16907500D01*
X8864643Y-16893214D01*
X9078928Y-16921786D02*
X9093214Y-16907500D01*
X9121786Y-16893214D01*
X9193214Y-16893214D01*
X9221786Y-16907500D01*
X9236071Y-16921786D01*
X9250357Y-16950357D01*
X9250357Y-16978929D01*
X9236071Y-17021786D01*
X9064643Y-17193214D01*
X9250357Y-17193214D01*
X9378928Y-17193214D02*
X9378928Y-16993214D01*
X9378928Y-17021786D02*
X9393214Y-17007500D01*
X9421786Y-16993214D01*
X9464643Y-16993214D01*
X9493214Y-17007500D01*
X9507500Y-17036072D01*
X9507500Y-17193214D01*
X9507500Y-17036072D02*
X9521786Y-17007500D01*
X9550357Y-16993214D01*
X9593214Y-16993214D01*
X9621786Y-17007500D01*
X9636071Y-17036072D01*
X9636071Y-17193214D01*
X9778928Y-17193214D02*
X9778928Y-16993214D01*
X9778928Y-17021786D02*
X9793214Y-17007500D01*
X9821786Y-16993214D01*
X9864643Y-16993214D01*
X9893214Y-17007500D01*
X9907500Y-17036072D01*
X9907500Y-17193214D01*
X9907500Y-17036072D02*
X9921786Y-17007500D01*
X9950357Y-16993214D01*
X9993214Y-16993214D01*
X10021786Y-17007500D01*
X10036071Y-17036072D01*
X10036071Y-17193214D01*
X10621786Y-16878929D02*
X10364643Y-17264643D01*
X11007500Y-16893214D02*
X11036071Y-16893214D01*
X11064643Y-16907500D01*
X11078928Y-16921786D01*
X11093214Y-16950357D01*
X11107500Y-17007500D01*
X11107500Y-17078929D01*
X11093214Y-17136072D01*
X11078928Y-17164643D01*
X11064643Y-17178929D01*
X11036071Y-17193214D01*
X11007500Y-17193214D01*
X10978928Y-17178929D01*
X10964643Y-17164643D01*
X10950357Y-17136072D01*
X10936071Y-17078929D01*
X10936071Y-17007500D01*
X10950357Y-16950357D01*
X10964643Y-16921786D01*
X10978928Y-16907500D01*
X11007500Y-16893214D01*
X11236071Y-17164643D02*
X11250357Y-17178929D01*
X11236071Y-17193214D01*
X11221786Y-17178929D01*
X11236071Y-17164643D01*
X11236071Y-17193214D01*
X11436071Y-16893214D02*
X11464643Y-16893214D01*
X11493214Y-16907500D01*
X11507500Y-16921786D01*
X11521786Y-16950357D01*
X11536071Y-17007500D01*
X11536071Y-17078929D01*
X11521786Y-17136072D01*
X11507500Y-17164643D01*
X11493214Y-17178929D01*
X11464643Y-17193214D01*
X11436071Y-17193214D01*
X11407500Y-17178929D01*
X11393214Y-17164643D01*
X11378928Y-17136072D01*
X11364643Y-17078929D01*
X11364643Y-17007500D01*
X11378928Y-16950357D01*
X11393214Y-16921786D01*
X11407500Y-16907500D01*
X11436071Y-16893214D01*
X11793214Y-16993214D02*
X11793214Y-17193214D01*
X11721786Y-16878929D02*
X11650357Y-17093214D01*
X11836071Y-17093214D01*
X12007500Y-16893214D02*
X12036071Y-16893214D01*
X12064643Y-16907500D01*
X12078928Y-16921786D01*
X12093214Y-16950357D01*
X12107500Y-17007500D01*
X12107500Y-17078929D01*
X12093214Y-17136072D01*
X12078928Y-17164643D01*
X12064643Y-17178929D01*
X12036071Y-17193214D01*
X12007500Y-17193214D01*
X11978928Y-17178929D01*
X11964643Y-17164643D01*
X11950357Y-17136072D01*
X11936071Y-17078929D01*
X11936071Y-17007500D01*
X11950357Y-16950357D01*
X11964643Y-16921786D01*
X11978928Y-16907500D01*
X12007500Y-16893214D01*
X12221786Y-16893214D02*
X12221786Y-16950357D01*
X12336071Y-16893214D02*
X12336071Y-16950357D01*
X12778928Y-17307500D02*
X12764643Y-17293214D01*
X12736071Y-17250357D01*
X12721786Y-17221786D01*
X12707500Y-17178929D01*
X12693214Y-17107500D01*
X12693214Y-17050357D01*
X12707500Y-16978929D01*
X12721786Y-16936072D01*
X12736071Y-16907500D01*
X12764643Y-16864643D01*
X12778928Y-16850357D01*
X13021786Y-16993214D02*
X13021786Y-17193214D01*
X12950357Y-16878929D02*
X12878928Y-17093214D01*
X13064643Y-17093214D01*
X13321786Y-16893214D02*
X13178928Y-16893214D01*
X13164643Y-17036072D01*
X13178928Y-17021786D01*
X13207500Y-17007500D01*
X13278928Y-17007500D01*
X13307500Y-17021786D01*
X13321786Y-17036072D01*
X13336071Y-17064643D01*
X13336071Y-17136072D01*
X13321786Y-17164643D01*
X13307500Y-17178929D01*
X13278928Y-17193214D01*
X13207500Y-17193214D01*
X13178928Y-17178929D01*
X13164643Y-17164643D01*
X13693214Y-17193214D02*
X13693214Y-16893214D01*
X13821786Y-17193214D02*
X13821786Y-17036072D01*
X13807500Y-17007500D01*
X13778928Y-16993214D01*
X13736071Y-16993214D01*
X13707500Y-17007500D01*
X13693214Y-17021786D01*
X14007500Y-17193214D02*
X13978928Y-17178929D01*
X13964643Y-17164643D01*
X13950357Y-17136072D01*
X13950357Y-17050357D01*
X13964643Y-17021786D01*
X13978928Y-17007500D01*
X14007500Y-16993214D01*
X14050357Y-16993214D01*
X14078928Y-17007500D01*
X14093214Y-17021786D01*
X14107500Y-17050357D01*
X14107500Y-17136072D01*
X14093214Y-17164643D01*
X14078928Y-17178929D01*
X14050357Y-17193214D01*
X14007500Y-17193214D01*
X14278928Y-17193214D02*
X14250357Y-17178929D01*
X14236071Y-17150357D01*
X14236071Y-16893214D01*
X14507500Y-17178929D02*
X14478928Y-17193214D01*
X14421786Y-17193214D01*
X14393214Y-17178929D01*
X14378928Y-17150357D01*
X14378928Y-17036072D01*
X14393214Y-17007500D01*
X14421786Y-16993214D01*
X14478928Y-16993214D01*
X14507500Y-17007500D01*
X14521786Y-17036072D01*
X14521786Y-17064643D01*
X14378928Y-17093214D01*
X14636071Y-17178929D02*
X14664643Y-17193214D01*
X14721786Y-17193214D01*
X14750357Y-17178929D01*
X14764643Y-17150357D01*
X14764643Y-17136072D01*
X14750357Y-17107500D01*
X14721786Y-17093214D01*
X14678928Y-17093214D01*
X14650357Y-17078929D01*
X14636071Y-17050357D01*
X14636071Y-17036072D01*
X14650357Y-17007500D01*
X14678928Y-16993214D01*
X14721786Y-16993214D01*
X14750357Y-17007500D01*
X14864643Y-17307500D02*
X14878928Y-17293214D01*
X14907500Y-17250357D01*
X14921786Y-17221786D01*
X14936071Y-17178929D01*
X14950357Y-17107500D01*
X14950357Y-17050357D01*
X14936071Y-16978929D01*
X14921786Y-16936072D01*
X14907500Y-16907500D01*
X14878928Y-16864643D01*
X14864643Y-16850357D01*
X7962500Y-17583500D02*
X8092500Y-17453500D01*
X7962500Y-17323500D01*
X7832500Y-17453500D01*
X7962500Y-17583500D01*
X8364643Y-17317786D02*
X8378928Y-17303500D01*
X8407500Y-17289214D01*
X8478928Y-17289214D01*
X8507500Y-17303500D01*
X8521786Y-17317786D01*
X8536071Y-17346357D01*
X8536071Y-17374929D01*
X8521786Y-17417786D01*
X8350357Y-17589214D01*
X8536071Y-17589214D01*
X8664643Y-17560643D02*
X8678928Y-17574929D01*
X8664643Y-17589214D01*
X8650357Y-17574929D01*
X8664643Y-17560643D01*
X8664643Y-17589214D01*
X8936071Y-17289214D02*
X8878928Y-17289214D01*
X8850357Y-17303500D01*
X8836071Y-17317786D01*
X8807500Y-17360643D01*
X8793214Y-17417786D01*
X8793214Y-17532072D01*
X8807500Y-17560643D01*
X8821786Y-17574929D01*
X8850357Y-17589214D01*
X8907500Y-17589214D01*
X8936071Y-17574929D01*
X8950357Y-17560643D01*
X8964643Y-17532072D01*
X8964643Y-17460643D01*
X8950357Y-17432072D01*
X8936071Y-17417786D01*
X8907500Y-17403500D01*
X8850357Y-17403500D01*
X8821786Y-17417786D01*
X8807500Y-17432072D01*
X8793214Y-17460643D01*
X9150357Y-17289214D02*
X9178928Y-17289214D01*
X9207500Y-17303500D01*
X9221786Y-17317786D01*
X9236071Y-17346357D01*
X9250357Y-17403500D01*
X9250357Y-17474929D01*
X9236071Y-17532072D01*
X9221786Y-17560643D01*
X9207500Y-17574929D01*
X9178928Y-17589214D01*
X9150357Y-17589214D01*
X9121786Y-17574929D01*
X9107500Y-17560643D01*
X9093214Y-17532072D01*
X9078928Y-17474929D01*
X9078928Y-17403500D01*
X9093214Y-17346357D01*
X9107500Y-17317786D01*
X9121786Y-17303500D01*
X9150357Y-17289214D01*
X9378928Y-17589214D02*
X9378928Y-17389214D01*
X9378928Y-17417786D02*
X9393214Y-17403500D01*
X9421786Y-17389214D01*
X9464643Y-17389214D01*
X9493214Y-17403500D01*
X9507500Y-17432072D01*
X9507500Y-17589214D01*
X9507500Y-17432072D02*
X9521786Y-17403500D01*
X9550357Y-17389214D01*
X9593214Y-17389214D01*
X9621786Y-17403500D01*
X9636071Y-17432072D01*
X9636071Y-17589214D01*
X9778928Y-17589214D02*
X9778928Y-17389214D01*
X9778928Y-17417786D02*
X9793214Y-17403500D01*
X9821786Y-17389214D01*
X9864643Y-17389214D01*
X9893214Y-17403500D01*
X9907500Y-17432072D01*
X9907500Y-17589214D01*
X9907500Y-17432072D02*
X9921786Y-17403500D01*
X9950357Y-17389214D01*
X9993214Y-17389214D01*
X10021786Y-17403500D01*
X10036071Y-17432072D01*
X10036071Y-17589214D01*
X10621786Y-17274929D02*
X10364643Y-17660643D01*
X11007500Y-17289214D02*
X11036071Y-17289214D01*
X11064643Y-17303500D01*
X11078928Y-17317786D01*
X11093214Y-17346357D01*
X11107500Y-17403500D01*
X11107500Y-17474929D01*
X11093214Y-17532072D01*
X11078928Y-17560643D01*
X11064643Y-17574929D01*
X11036071Y-17589214D01*
X11007500Y-17589214D01*
X10978928Y-17574929D01*
X10964643Y-17560643D01*
X10950357Y-17532072D01*
X10936071Y-17474929D01*
X10936071Y-17403500D01*
X10950357Y-17346357D01*
X10964643Y-17317786D01*
X10978928Y-17303500D01*
X11007500Y-17289214D01*
X11236071Y-17560643D02*
X11250357Y-17574929D01*
X11236071Y-17589214D01*
X11221786Y-17574929D01*
X11236071Y-17560643D01*
X11236071Y-17589214D01*
X11536071Y-17589214D02*
X11364643Y-17589214D01*
X11450357Y-17589214D02*
X11450357Y-17289214D01*
X11421786Y-17332072D01*
X11393214Y-17360643D01*
X11364643Y-17374929D01*
X11721786Y-17289214D02*
X11750357Y-17289214D01*
X11778928Y-17303500D01*
X11793214Y-17317786D01*
X11807500Y-17346357D01*
X11821786Y-17403500D01*
X11821786Y-17474929D01*
X11807500Y-17532072D01*
X11793214Y-17560643D01*
X11778928Y-17574929D01*
X11750357Y-17589214D01*
X11721786Y-17589214D01*
X11693214Y-17574929D01*
X11678928Y-17560643D01*
X11664643Y-17532072D01*
X11650357Y-17474929D01*
X11650357Y-17403500D01*
X11664643Y-17346357D01*
X11678928Y-17317786D01*
X11693214Y-17303500D01*
X11721786Y-17289214D01*
X11936071Y-17317786D02*
X11950357Y-17303500D01*
X11978928Y-17289214D01*
X12050357Y-17289214D01*
X12078928Y-17303500D01*
X12093214Y-17317786D01*
X12107500Y-17346357D01*
X12107500Y-17374929D01*
X12093214Y-17417786D01*
X11921786Y-17589214D01*
X12107500Y-17589214D01*
X12221786Y-17289214D02*
X12221786Y-17346357D01*
X12336071Y-17289214D02*
X12336071Y-17346357D01*
X12778928Y-17703500D02*
X12764643Y-17689214D01*
X12736071Y-17646357D01*
X12721786Y-17617786D01*
X12707500Y-17574929D01*
X12693214Y-17503500D01*
X12693214Y-17446357D01*
X12707500Y-17374929D01*
X12721786Y-17332072D01*
X12736071Y-17303500D01*
X12764643Y-17260643D01*
X12778928Y-17246357D01*
X13021786Y-17289214D02*
X12964643Y-17289214D01*
X12936071Y-17303500D01*
X12921786Y-17317786D01*
X12893214Y-17360643D01*
X12878928Y-17417786D01*
X12878928Y-17532072D01*
X12893214Y-17560643D01*
X12907500Y-17574929D01*
X12936071Y-17589214D01*
X12993214Y-17589214D01*
X13021786Y-17574929D01*
X13036071Y-17560643D01*
X13050357Y-17532072D01*
X13050357Y-17460643D01*
X13036071Y-17432072D01*
X13021786Y-17417786D01*
X12993214Y-17403500D01*
X12936071Y-17403500D01*
X12907500Y-17417786D01*
X12893214Y-17432072D01*
X12878928Y-17460643D01*
X13407500Y-17589214D02*
X13407500Y-17289214D01*
X13536071Y-17589214D02*
X13536071Y-17432072D01*
X13521786Y-17403500D01*
X13493214Y-17389214D01*
X13450357Y-17389214D01*
X13421786Y-17403500D01*
X13407500Y-17417786D01*
X13721786Y-17589214D02*
X13693214Y-17574929D01*
X13678928Y-17560643D01*
X13664643Y-17532072D01*
X13664643Y-17446357D01*
X13678928Y-17417786D01*
X13693214Y-17403500D01*
X13721786Y-17389214D01*
X13764643Y-17389214D01*
X13793214Y-17403500D01*
X13807500Y-17417786D01*
X13821786Y-17446357D01*
X13821786Y-17532072D01*
X13807500Y-17560643D01*
X13793214Y-17574929D01*
X13764643Y-17589214D01*
X13721786Y-17589214D01*
X13993214Y-17589214D02*
X13964643Y-17574929D01*
X13950357Y-17546357D01*
X13950357Y-17289214D01*
X14221786Y-17574929D02*
X14193214Y-17589214D01*
X14136071Y-17589214D01*
X14107500Y-17574929D01*
X14093214Y-17546357D01*
X14093214Y-17432072D01*
X14107500Y-17403500D01*
X14136071Y-17389214D01*
X14193214Y-17389214D01*
X14221786Y-17403500D01*
X14236071Y-17432072D01*
X14236071Y-17460643D01*
X14093214Y-17489214D01*
X14350357Y-17574929D02*
X14378928Y-17589214D01*
X14436071Y-17589214D01*
X14464643Y-17574929D01*
X14478928Y-17546357D01*
X14478928Y-17532072D01*
X14464643Y-17503500D01*
X14436071Y-17489214D01*
X14393214Y-17489214D01*
X14364643Y-17474929D01*
X14350357Y-17446357D01*
X14350357Y-17432072D01*
X14364643Y-17403500D01*
X14393214Y-17389214D01*
X14436071Y-17389214D01*
X14464643Y-17403500D01*
X14578928Y-17703500D02*
X14593214Y-17689214D01*
X14621786Y-17646357D01*
X14636071Y-17617786D01*
X14650357Y-17574929D01*
X14664643Y-17503500D01*
X14664643Y-17446357D01*
X14650357Y-17374929D01*
X14636071Y-17332072D01*
X14621786Y-17303500D01*
X14593214Y-17260643D01*
X14578928Y-17246357D01*
M02*
