%FSLAX45Y45*%
G04 Gerber Fmt 4.5, Leading zero omitted, Abs format (unit mm)*
G04 Created by KiCad (PCBNEW (2016-05-02 BZR 6765, Git 2f87409)-product) date 2016-05-10 21:51:13*
%MOMM*%
%LPD*%
G01*
G04 APERTURE LIST*
%ADD10C,0.127000*%
%ADD11C,0.150000*%
%ADD12C,0.200000*%
%ADD13C,0.300000*%
G04 APERTURE END LIST*
D10*
D11*
X15620000Y-8700000D02*
X15461000Y-8699000D01*
X16020000Y-8700000D02*
X16161000Y-8699000D01*
X8100000Y-11900000D02*
X9100000Y-11900000D01*
X9100000Y-11700000D02*
X8100000Y-11700000D01*
X9500000Y-11700000D02*
X10691000Y-11700000D01*
X12840000Y-11900000D02*
X9500000Y-11900000D01*
X13240000Y-11900000D02*
X13359000Y-11900000D01*
X15640000Y-11700000D02*
X13240000Y-11700000D01*
X15640000Y-11900000D02*
X15509000Y-11899000D01*
X16040000Y-11900000D02*
X17520000Y-11900000D01*
X17520000Y-11700000D02*
X16040000Y-11700000D01*
X17920000Y-11700000D02*
X18100000Y-11700000D01*
X18100000Y-11900000D02*
X17920000Y-11900000D01*
X18100000Y-8700000D02*
X17820000Y-8700000D01*
X17420000Y-8700000D02*
X17221000Y-8699000D01*
X9500000Y-8700000D02*
X12840000Y-8700000D01*
X8100000Y-8700000D02*
X9100000Y-8700000D01*
X9100000Y-8500000D02*
X8100000Y-8500000D01*
X9500000Y-8500000D02*
X10691000Y-8498000D01*
X15620000Y-8500000D02*
X13211000Y-8500000D01*
X17420000Y-8500000D02*
X16020000Y-8500000D01*
X18100000Y-8500000D02*
X17820000Y-8500000D01*
X17820000Y-8500000D02*
G75*
G03X17820000Y-8700000I0J-100000D01*
G01*
X17420000Y-8700000D02*
G75*
G03X17420000Y-8500000I0J100000D01*
G01*
X17920000Y-11700000D02*
G75*
G03X17920000Y-11900000I0J-100000D01*
G01*
X17520000Y-11900000D02*
G75*
G03X17520000Y-11700000I0J100000D01*
G01*
X16040000Y-11700000D02*
G75*
G03X16040000Y-11900000I0J-100000D01*
G01*
X15640000Y-11900000D02*
G75*
G03X15640000Y-11700000I0J100000D01*
G01*
X16020000Y-8500000D02*
G75*
G03X16020000Y-8700000I0J-100000D01*
G01*
X15620000Y-8700000D02*
G75*
G03X15620000Y-8500000I0J100000D01*
G01*
X13110000Y-8700000D02*
X13110000Y-8600000D01*
X13210000Y-8500000D02*
G75*
G03X13110000Y-8600000I0J-100000D01*
G01*
X12840000Y-8700000D02*
G75*
G03X12840000Y-8500000I0J100000D01*
G01*
X13240000Y-11700000D02*
G75*
G03X13240000Y-11900000I0J-100000D01*
G01*
X12840000Y-11900000D02*
G75*
G03X12840000Y-11700000I0J100000D01*
G01*
X9500000Y-11700000D02*
G75*
G03X9500000Y-11900000I0J-100000D01*
G01*
X9500000Y-8500000D02*
G75*
G03X9500000Y-8700000I0J-100000D01*
G01*
X9100000Y-8700000D02*
G75*
G03X9100000Y-8500000I0J100000D01*
G01*
X9100000Y-11900000D02*
G75*
G03X9100000Y-11700000I0J100000D01*
G01*
X13861010Y-7798000D02*
G75*
G03X13962000Y-7808000I50990J0D01*
G01*
X15361971Y-7807806D02*
G75*
G03X15461000Y-7798000I49029J9806D01*
G01*
X16161000Y-5958000D02*
G75*
G03X16261000Y-5958000I50000J0D01*
G01*
X16781000Y-5958000D02*
G75*
G03X16881000Y-5958000I50000J0D01*
G01*
X10691000Y-8388000D02*
X10691000Y-8498000D01*
X12741000Y-8288000D02*
X10791000Y-8288000D01*
X12841000Y-8388000D02*
X12840000Y-8500000D01*
X12841000Y-8388000D02*
G75*
G03X12741000Y-8288000I-100000J0D01*
G01*
X10791000Y-8288000D02*
G75*
G03X10691000Y-8388000I0J-100000D01*
G01*
X13211000Y-5498000D02*
X13861000Y-5498000D01*
X13111000Y-6018000D02*
X13111000Y-5498000D01*
X13211000Y-6018000D02*
X13211000Y-5498000D01*
X13111000Y-6018000D02*
G75*
G03X13211000Y-6018000I50000J0D01*
G01*
X16161000Y-5498000D02*
X15461000Y-5498000D01*
X13861000Y-7798000D02*
X13861000Y-5498000D01*
X15362000Y-7808000D02*
X13962000Y-7808000D01*
X15461000Y-5498000D02*
X15461000Y-7798000D01*
X16881000Y-5498000D02*
X17121000Y-5498000D01*
X16161000Y-5958000D02*
X16161000Y-5498000D01*
X16781000Y-5958000D02*
X16261000Y-5958000D01*
X16881000Y-5498000D02*
X16881000Y-5958000D01*
X18100000Y-5499000D02*
X17221000Y-5498000D01*
X17221000Y-5828000D02*
X17221000Y-5498000D01*
X17121000Y-5828000D02*
X17121000Y-5498000D01*
X17221000Y-6648000D02*
X17221000Y-6088000D01*
X17121000Y-6088000D02*
X17121000Y-6648000D01*
X17131000Y-7158000D02*
X17131000Y-7928000D01*
X17231000Y-7928000D02*
X17231000Y-7158000D01*
X17131000Y-7928000D02*
G75*
G03X17231000Y-7928000I50000J0D01*
G01*
X17231000Y-7158000D02*
G75*
G03X17131000Y-7158000I-50000J0D01*
G01*
X17121000Y-5828000D02*
G75*
G03X17221000Y-5828000I50000J0D01*
G01*
X17221000Y-6088000D02*
G75*
G03X17121000Y-6088000I-50000J0D01*
G01*
X17121000Y-6648000D02*
G75*
G03X17221000Y-6648000I50000J0D01*
G01*
X8781000Y-7548000D02*
G75*
G03X8881000Y-7648000I100000J0D01*
G01*
X9381000Y-7648000D02*
G75*
G03X9481000Y-7548000I0J100000D01*
G01*
X9481000Y-6448000D02*
G75*
G03X9381000Y-6348000I-100000J0D01*
G01*
X8881000Y-6348000D02*
G75*
G03X8781000Y-6448000I0J-100000D01*
G01*
X8781000Y-7548000D02*
X8781000Y-6448000D01*
X9381000Y-7648000D02*
X8881000Y-7648000D01*
X9481000Y-6448000D02*
X9481000Y-7548000D01*
X8881000Y-6348000D02*
X9381000Y-6348000D01*
X8100000Y-5499000D02*
X8100000Y-8499000D01*
X13111000Y-5498000D02*
X8100000Y-5499000D01*
X18100000Y-8499000D02*
X18100000Y-5499000D01*
X13861010Y-10999000D02*
G75*
G03X13962000Y-11009000I50990J0D01*
G01*
X15361971Y-11008806D02*
G75*
G03X15461000Y-10999000I49029J9806D01*
G01*
X16161000Y-9159000D02*
G75*
G03X16261000Y-9159000I50000J0D01*
G01*
X16781000Y-9159000D02*
G75*
G03X16881000Y-9159000I50000J0D01*
G01*
X10691000Y-11589000D02*
X10691000Y-11700000D01*
X12741000Y-11489000D02*
X10791000Y-11489000D01*
X12841000Y-11589000D02*
X12841000Y-11699000D01*
X12841000Y-11589000D02*
G75*
G03X12741000Y-11489000I-100000J0D01*
G01*
X10791000Y-11489000D02*
G75*
G03X10691000Y-11589000I0J-100000D01*
G01*
X13211000Y-8699000D02*
X13861000Y-8699000D01*
X13111000Y-9219000D02*
X13111000Y-8699000D01*
X13211000Y-9219000D02*
X13211000Y-8699000D01*
X13111000Y-9219000D02*
G75*
G03X13211000Y-9219000I50000J0D01*
G01*
X13861000Y-10999000D02*
X13861000Y-8699000D01*
X15362000Y-11009000D02*
X13962000Y-11009000D01*
X15461000Y-8699000D02*
X15461000Y-10999000D01*
X16881000Y-8699000D02*
X17121000Y-8699000D01*
X16161000Y-9159000D02*
X16161000Y-8699000D01*
X16781000Y-9159000D02*
X16261000Y-9159000D01*
X16881000Y-8699000D02*
X16881000Y-9159000D01*
X17221000Y-9029000D02*
X17221000Y-8699000D01*
X17121000Y-9029000D02*
X17121000Y-8699000D01*
X17221000Y-9849000D02*
X17221000Y-9289000D01*
X17121000Y-9289000D02*
X17121000Y-9849000D01*
X17131000Y-10359000D02*
X17131000Y-11129000D01*
X17231000Y-11129000D02*
X17231000Y-10359000D01*
X17131000Y-11129000D02*
G75*
G03X17231000Y-11129000I50000J0D01*
G01*
X17231000Y-10359000D02*
G75*
G03X17131000Y-10359000I-50000J0D01*
G01*
X17121000Y-9029000D02*
G75*
G03X17221000Y-9029000I50000J0D01*
G01*
X17221000Y-9289000D02*
G75*
G03X17121000Y-9289000I-50000J0D01*
G01*
X17121000Y-9849000D02*
G75*
G03X17221000Y-9849000I50000J0D01*
G01*
X8781000Y-10749000D02*
G75*
G03X8881000Y-10849000I100000J0D01*
G01*
X9381000Y-10849000D02*
G75*
G03X9481000Y-10749000I0J100000D01*
G01*
X9481000Y-9649000D02*
G75*
G03X9381000Y-9549000I-100000J0D01*
G01*
X8881000Y-9549000D02*
G75*
G03X8781000Y-9649000I0J-100000D01*
G01*
X8781000Y-10749000D02*
X8781000Y-9649000D01*
X9381000Y-10849000D02*
X8881000Y-10849000D01*
X9481000Y-9649000D02*
X9481000Y-10749000D01*
X8881000Y-9549000D02*
X9381000Y-9549000D01*
X8100000Y-8700000D02*
X8100000Y-11700000D01*
X18100000Y-11700000D02*
X18100000Y-8700000D01*
X12338990Y-12602000D02*
G75*
G03X12238000Y-12592000I-50990J0D01*
G01*
X10838029Y-12592194D02*
G75*
G03X10739000Y-12602000I-49029J-9806D01*
G01*
X10039000Y-14442000D02*
G75*
G03X9939000Y-14442000I-50000J0D01*
G01*
X9419000Y-14442000D02*
G75*
G03X9319000Y-14442000I-50000J0D01*
G01*
X15509000Y-12012000D02*
X15509000Y-11899000D01*
X13459000Y-12112000D02*
X15409000Y-12112000D01*
X13359000Y-12012000D02*
X13359000Y-11900000D01*
X13359000Y-12012000D02*
G75*
G03X13459000Y-12112000I100000J0D01*
G01*
X15409000Y-12112000D02*
G75*
G03X15509000Y-12012000I0J100000D01*
G01*
X12989000Y-14902000D02*
X12339000Y-14902000D01*
X13089000Y-14382000D02*
X13089000Y-14902000D01*
X12989000Y-14382000D02*
X12989000Y-14902000D01*
X13089000Y-14382000D02*
G75*
G03X12989000Y-14382000I-50000J0D01*
G01*
X10039000Y-14902000D02*
X10739000Y-14902000D01*
X12339000Y-12602000D02*
X12339000Y-14902000D01*
X10838000Y-12592000D02*
X12238000Y-12592000D01*
X10739000Y-14902000D02*
X10739000Y-12602000D01*
X9319000Y-14902000D02*
X9079000Y-14902000D01*
X10039000Y-14442000D02*
X10039000Y-14902000D01*
X9419000Y-14442000D02*
X9939000Y-14442000D01*
X9319000Y-14902000D02*
X9319000Y-14442000D01*
X8100000Y-14901000D02*
X8979000Y-14902000D01*
X8979000Y-14572000D02*
X8979000Y-14902000D01*
X9079000Y-14572000D02*
X9079000Y-14902000D01*
X8979000Y-13752000D02*
X8979000Y-14312000D01*
X9079000Y-14312000D02*
X9079000Y-13752000D01*
X9069000Y-13242000D02*
X9069000Y-12472000D01*
X8969000Y-12472000D02*
X8969000Y-13242000D01*
X9069000Y-12472000D02*
G75*
G03X8969000Y-12472000I-50000J0D01*
G01*
X8969000Y-13242000D02*
G75*
G03X9069000Y-13242000I50000J0D01*
G01*
X9079000Y-14572000D02*
G75*
G03X8979000Y-14572000I-50000J0D01*
G01*
X8979000Y-14312000D02*
G75*
G03X9079000Y-14312000I50000J0D01*
G01*
X9079000Y-13752000D02*
G75*
G03X8979000Y-13752000I-50000J0D01*
G01*
X17419000Y-12852000D02*
G75*
G03X17319000Y-12752000I-100000J0D01*
G01*
X16819000Y-12752000D02*
G75*
G03X16719000Y-12852000I0J-100000D01*
G01*
X16719000Y-13952000D02*
G75*
G03X16819000Y-14052000I100000J0D01*
G01*
X17319000Y-14052000D02*
G75*
G03X17419000Y-13952000I0J100000D01*
G01*
X17419000Y-12852000D02*
X17419000Y-13952000D01*
X16819000Y-12752000D02*
X17319000Y-12752000D01*
X16719000Y-13952000D02*
X16719000Y-12852000D01*
X17319000Y-14052000D02*
X16819000Y-14052000D01*
X18100000Y-14901000D02*
X18100000Y-11901000D01*
X13089000Y-14902000D02*
X18100000Y-14901000D01*
X8100000Y-11901000D02*
X8100000Y-14901000D01*
D12*
X8783000Y-6651000D02*
X9483000Y-7351000D01*
X9483000Y-6651000D02*
X8783000Y-7351000D01*
X8783000Y-9852000D02*
X9483000Y-10552000D01*
X9483000Y-9852000D02*
X8783000Y-10552000D01*
X16717000Y-13049000D02*
X17417000Y-13749000D01*
X17417000Y-13049000D02*
X16717000Y-13749000D01*
D13*
X8378928Y-15375214D02*
X8378928Y-15075214D01*
X8450357Y-15075214D01*
X8493214Y-15089500D01*
X8521786Y-15118071D01*
X8536071Y-15146643D01*
X8550357Y-15203786D01*
X8550357Y-15246643D01*
X8536071Y-15303786D01*
X8521786Y-15332357D01*
X8493214Y-15360929D01*
X8450357Y-15375214D01*
X8378928Y-15375214D01*
X8678928Y-15375214D02*
X8678928Y-15175214D01*
X8678928Y-15232357D02*
X8693214Y-15203786D01*
X8707500Y-15189500D01*
X8736071Y-15175214D01*
X8764643Y-15175214D01*
X8864643Y-15375214D02*
X8864643Y-15175214D01*
X8864643Y-15075214D02*
X8850357Y-15089500D01*
X8864643Y-15103786D01*
X8878928Y-15089500D01*
X8864643Y-15075214D01*
X8864643Y-15103786D01*
X9050357Y-15375214D02*
X9021786Y-15360929D01*
X9007500Y-15332357D01*
X9007500Y-15075214D01*
X9207500Y-15375214D02*
X9178928Y-15360929D01*
X9164643Y-15332357D01*
X9164643Y-15075214D01*
X9550357Y-15375214D02*
X9550357Y-15075214D01*
X9650357Y-15289500D01*
X9750357Y-15075214D01*
X9750357Y-15375214D01*
X10021786Y-15375214D02*
X10021786Y-15218071D01*
X10007500Y-15189500D01*
X9978928Y-15175214D01*
X9921786Y-15175214D01*
X9893214Y-15189500D01*
X10021786Y-15360929D02*
X9993214Y-15375214D01*
X9921786Y-15375214D01*
X9893214Y-15360929D01*
X9878928Y-15332357D01*
X9878928Y-15303786D01*
X9893214Y-15275214D01*
X9921786Y-15260929D01*
X9993214Y-15260929D01*
X10021786Y-15246643D01*
X10164643Y-15175214D02*
X10164643Y-15475214D01*
X10164643Y-15189500D02*
X10193214Y-15175214D01*
X10250357Y-15175214D01*
X10278928Y-15189500D01*
X10293214Y-15203786D01*
X10307500Y-15232357D01*
X10307500Y-15318071D01*
X10293214Y-15346643D01*
X10278928Y-15360929D01*
X10250357Y-15375214D01*
X10193214Y-15375214D01*
X10164643Y-15360929D01*
X10436071Y-15346643D02*
X10450357Y-15360929D01*
X10436071Y-15375214D01*
X10421786Y-15360929D01*
X10436071Y-15346643D01*
X10436071Y-15375214D01*
X10436071Y-15189500D02*
X10450357Y-15203786D01*
X10436071Y-15218071D01*
X10421786Y-15203786D01*
X10436071Y-15189500D01*
X10436071Y-15218071D01*
X7392500Y-15519500D02*
X8092500Y-16219500D01*
X8092500Y-15519500D02*
X7392500Y-16219500D01*
X8350357Y-15705214D02*
X8550357Y-15705214D01*
X8421786Y-16005214D01*
X8664643Y-15976643D02*
X8678928Y-15990929D01*
X8664643Y-16005214D01*
X8650357Y-15990929D01*
X8664643Y-15976643D01*
X8664643Y-16005214D01*
X8864643Y-15705214D02*
X8893214Y-15705214D01*
X8921786Y-15719500D01*
X8936071Y-15733786D01*
X8950357Y-15762357D01*
X8964643Y-15819500D01*
X8964643Y-15890929D01*
X8950357Y-15948071D01*
X8936071Y-15976643D01*
X8921786Y-15990929D01*
X8893214Y-16005214D01*
X8864643Y-16005214D01*
X8836071Y-15990929D01*
X8821786Y-15976643D01*
X8807500Y-15948071D01*
X8793214Y-15890929D01*
X8793214Y-15819500D01*
X8807500Y-15762357D01*
X8821786Y-15733786D01*
X8836071Y-15719500D01*
X8864643Y-15705214D01*
X9150357Y-15705214D02*
X9178928Y-15705214D01*
X9207500Y-15719500D01*
X9221786Y-15733786D01*
X9236071Y-15762357D01*
X9250357Y-15819500D01*
X9250357Y-15890929D01*
X9236071Y-15948071D01*
X9221786Y-15976643D01*
X9207500Y-15990929D01*
X9178928Y-16005214D01*
X9150357Y-16005214D01*
X9121786Y-15990929D01*
X9107500Y-15976643D01*
X9093214Y-15948071D01*
X9078928Y-15890929D01*
X9078928Y-15819500D01*
X9093214Y-15762357D01*
X9107500Y-15733786D01*
X9121786Y-15719500D01*
X9150357Y-15705214D01*
X9378928Y-16005214D02*
X9378928Y-15805214D01*
X9378928Y-15833786D02*
X9393214Y-15819500D01*
X9421786Y-15805214D01*
X9464643Y-15805214D01*
X9493214Y-15819500D01*
X9507500Y-15848071D01*
X9507500Y-16005214D01*
X9507500Y-15848071D02*
X9521786Y-15819500D01*
X9550357Y-15805214D01*
X9593214Y-15805214D01*
X9621786Y-15819500D01*
X9636071Y-15848071D01*
X9636071Y-16005214D01*
X9778928Y-16005214D02*
X9778928Y-15805214D01*
X9778928Y-15833786D02*
X9793214Y-15819500D01*
X9821786Y-15805214D01*
X9864643Y-15805214D01*
X9893214Y-15819500D01*
X9907500Y-15848071D01*
X9907500Y-16005214D01*
X9907500Y-15848071D02*
X9921786Y-15819500D01*
X9950357Y-15805214D01*
X9993214Y-15805214D01*
X10021786Y-15819500D01*
X10036071Y-15848071D01*
X10036071Y-16005214D01*
X10621786Y-15690929D02*
X10364643Y-16076643D01*
X11007500Y-15705214D02*
X11036071Y-15705214D01*
X11064643Y-15719500D01*
X11078928Y-15733786D01*
X11093214Y-15762357D01*
X11107500Y-15819500D01*
X11107500Y-15890929D01*
X11093214Y-15948071D01*
X11078928Y-15976643D01*
X11064643Y-15990929D01*
X11036071Y-16005214D01*
X11007500Y-16005214D01*
X10978928Y-15990929D01*
X10964643Y-15976643D01*
X10950357Y-15948071D01*
X10936071Y-15890929D01*
X10936071Y-15819500D01*
X10950357Y-15762357D01*
X10964643Y-15733786D01*
X10978928Y-15719500D01*
X11007500Y-15705214D01*
X11236071Y-15976643D02*
X11250357Y-15990929D01*
X11236071Y-16005214D01*
X11221786Y-15990929D01*
X11236071Y-15976643D01*
X11236071Y-16005214D01*
X11364643Y-15733786D02*
X11378928Y-15719500D01*
X11407500Y-15705214D01*
X11478928Y-15705214D01*
X11507500Y-15719500D01*
X11521786Y-15733786D01*
X11536071Y-15762357D01*
X11536071Y-15790929D01*
X11521786Y-15833786D01*
X11350357Y-16005214D01*
X11536071Y-16005214D01*
X11636071Y-15705214D02*
X11836071Y-15705214D01*
X11707500Y-16005214D01*
X12078928Y-15705214D02*
X12021786Y-15705214D01*
X11993214Y-15719500D01*
X11978928Y-15733786D01*
X11950357Y-15776643D01*
X11936071Y-15833786D01*
X11936071Y-15948071D01*
X11950357Y-15976643D01*
X11964643Y-15990929D01*
X11993214Y-16005214D01*
X12050357Y-16005214D01*
X12078928Y-15990929D01*
X12093214Y-15976643D01*
X12107500Y-15948071D01*
X12107500Y-15876643D01*
X12093214Y-15848071D01*
X12078928Y-15833786D01*
X12050357Y-15819500D01*
X11993214Y-15819500D01*
X11964643Y-15833786D01*
X11950357Y-15848071D01*
X11936071Y-15876643D01*
X12221786Y-15705214D02*
X12221786Y-15762357D01*
X12336071Y-15705214D02*
X12336071Y-15762357D01*
X12778928Y-16119500D02*
X12764643Y-16105214D01*
X12736071Y-16062357D01*
X12721786Y-16033786D01*
X12707500Y-15990929D01*
X12693214Y-15919500D01*
X12693214Y-15862357D01*
X12707500Y-15790929D01*
X12721786Y-15748071D01*
X12736071Y-15719500D01*
X12764643Y-15676643D01*
X12778928Y-15662357D01*
X12864643Y-15705214D02*
X13050357Y-15705214D01*
X12950357Y-15819500D01*
X12993214Y-15819500D01*
X13021786Y-15833786D01*
X13036071Y-15848071D01*
X13050357Y-15876643D01*
X13050357Y-15948071D01*
X13036071Y-15976643D01*
X13021786Y-15990929D01*
X12993214Y-16005214D01*
X12907500Y-16005214D01*
X12878928Y-15990929D01*
X12864643Y-15976643D01*
X13407500Y-16005214D02*
X13407500Y-15705214D01*
X13536071Y-16005214D02*
X13536071Y-15848071D01*
X13521786Y-15819500D01*
X13493214Y-15805214D01*
X13450357Y-15805214D01*
X13421786Y-15819500D01*
X13407500Y-15833786D01*
X13721786Y-16005214D02*
X13693214Y-15990929D01*
X13678928Y-15976643D01*
X13664643Y-15948071D01*
X13664643Y-15862357D01*
X13678928Y-15833786D01*
X13693214Y-15819500D01*
X13721786Y-15805214D01*
X13764643Y-15805214D01*
X13793214Y-15819500D01*
X13807500Y-15833786D01*
X13821786Y-15862357D01*
X13821786Y-15948071D01*
X13807500Y-15976643D01*
X13793214Y-15990929D01*
X13764643Y-16005214D01*
X13721786Y-16005214D01*
X13993214Y-16005214D02*
X13964643Y-15990929D01*
X13950357Y-15962357D01*
X13950357Y-15705214D01*
X14221786Y-15990929D02*
X14193214Y-16005214D01*
X14136071Y-16005214D01*
X14107500Y-15990929D01*
X14093214Y-15962357D01*
X14093214Y-15848071D01*
X14107500Y-15819500D01*
X14136071Y-15805214D01*
X14193214Y-15805214D01*
X14221786Y-15819500D01*
X14236071Y-15848071D01*
X14236071Y-15876643D01*
X14093214Y-15905214D01*
X14350357Y-15990929D02*
X14378928Y-16005214D01*
X14436071Y-16005214D01*
X14464643Y-15990929D01*
X14478928Y-15962357D01*
X14478928Y-15948071D01*
X14464643Y-15919500D01*
X14436071Y-15905214D01*
X14393214Y-15905214D01*
X14364643Y-15890929D01*
X14350357Y-15862357D01*
X14350357Y-15848071D01*
X14364643Y-15819500D01*
X14393214Y-15805214D01*
X14436071Y-15805214D01*
X14464643Y-15819500D01*
X14578928Y-16119500D02*
X14593214Y-16105214D01*
X14621786Y-16062357D01*
X14636071Y-16033786D01*
X14650357Y-15990929D01*
X14664643Y-15919500D01*
X14664643Y-15862357D01*
X14650357Y-15790929D01*
X14636071Y-15748071D01*
X14621786Y-15719500D01*
X14593214Y-15676643D01*
X14578928Y-15662357D01*
X15121786Y-16119500D02*
X15107500Y-16105214D01*
X15078928Y-16062357D01*
X15064643Y-16033786D01*
X15050357Y-15990929D01*
X15036071Y-15919500D01*
X15036071Y-15862357D01*
X15050357Y-15790929D01*
X15064643Y-15748071D01*
X15078928Y-15719500D01*
X15107500Y-15676643D01*
X15121786Y-15662357D01*
X15236071Y-15805214D02*
X15236071Y-16005214D01*
X15236071Y-15833786D02*
X15250357Y-15819500D01*
X15278928Y-15805214D01*
X15321786Y-15805214D01*
X15350357Y-15819500D01*
X15364643Y-15848071D01*
X15364643Y-16005214D01*
X15550357Y-16005214D02*
X15521786Y-15990929D01*
X15507500Y-15976643D01*
X15493214Y-15948071D01*
X15493214Y-15862357D01*
X15507500Y-15833786D01*
X15521786Y-15819500D01*
X15550357Y-15805214D01*
X15593214Y-15805214D01*
X15621786Y-15819500D01*
X15636071Y-15833786D01*
X15650357Y-15862357D01*
X15650357Y-15948071D01*
X15636071Y-15976643D01*
X15621786Y-15990929D01*
X15593214Y-16005214D01*
X15550357Y-16005214D01*
X15736071Y-15805214D02*
X15850357Y-15805214D01*
X15778928Y-15705214D02*
X15778928Y-15962357D01*
X15793214Y-15990929D01*
X15821786Y-16005214D01*
X15850357Y-16005214D01*
X16178928Y-15805214D02*
X16178928Y-16105214D01*
X16178928Y-15819500D02*
X16207500Y-15805214D01*
X16264643Y-15805214D01*
X16293214Y-15819500D01*
X16307500Y-15833786D01*
X16321786Y-15862357D01*
X16321786Y-15948071D01*
X16307500Y-15976643D01*
X16293214Y-15990929D01*
X16264643Y-16005214D01*
X16207500Y-16005214D01*
X16178928Y-15990929D01*
X16493214Y-16005214D02*
X16464643Y-15990929D01*
X16450357Y-15962357D01*
X16450357Y-15705214D01*
X16736071Y-16005214D02*
X16736071Y-15848071D01*
X16721786Y-15819500D01*
X16693214Y-15805214D01*
X16636071Y-15805214D01*
X16607500Y-15819500D01*
X16736071Y-15990929D02*
X16707500Y-16005214D01*
X16636071Y-16005214D01*
X16607500Y-15990929D01*
X16593214Y-15962357D01*
X16593214Y-15933786D01*
X16607500Y-15905214D01*
X16636071Y-15890929D01*
X16707500Y-15890929D01*
X16736071Y-15876643D01*
X16836071Y-15805214D02*
X16950357Y-15805214D01*
X16878928Y-15705214D02*
X16878928Y-15962357D01*
X16893214Y-15990929D01*
X16921786Y-16005214D01*
X16950357Y-16005214D01*
X17164643Y-15990929D02*
X17136071Y-16005214D01*
X17078928Y-16005214D01*
X17050357Y-15990929D01*
X17036071Y-15962357D01*
X17036071Y-15848071D01*
X17050357Y-15819500D01*
X17078928Y-15805214D01*
X17136071Y-15805214D01*
X17164643Y-15819500D01*
X17178928Y-15848071D01*
X17178928Y-15876643D01*
X17036071Y-15905214D01*
X17436071Y-16005214D02*
X17436071Y-15705214D01*
X17436071Y-15990929D02*
X17407500Y-16005214D01*
X17350357Y-16005214D01*
X17321786Y-15990929D01*
X17307500Y-15976643D01*
X17293214Y-15948071D01*
X17293214Y-15862357D01*
X17307500Y-15833786D01*
X17321786Y-15819500D01*
X17350357Y-15805214D01*
X17407500Y-15805214D01*
X17436071Y-15819500D01*
X17550357Y-16119500D02*
X17564643Y-16105214D01*
X17593214Y-16062357D01*
X17607500Y-16033786D01*
X17621786Y-15990929D01*
X17636071Y-15919500D01*
X17636071Y-15862357D01*
X17621786Y-15790929D01*
X17607500Y-15748071D01*
X17593214Y-15719500D01*
X17564643Y-15676643D01*
X17550357Y-15662357D01*
M02*
