M48
;DRILL file {KiCad (2016-05-02 BZR 6765, Git 2f87409)-product} date 2016-05-10 21:51:07
;FORMAT={-:-/ absolute / metric / decimal}
FMAT,2
METRIC,TZ
T1C0.400
T2C0.762
T3C0.900
T4C1.016
T5C2.600
%
G90
G05
M71
T1
X82.21Y-69.08
X82.21Y-101.09
X82.76Y-130.93
X82.9Y-136.91
X83.657Y-133.876
X83.67Y-124.529
X83.701Y-131.11
X83.91Y-77.18
X83.91Y-109.19
X84.4Y-133.51
X85.026Y-134.008
X85.2Y-136.81
X85.3Y-130.81
X85.61Y-62.78
X85.61Y-69.88
X85.61Y-94.79
X85.61Y-101.89
X86.1Y-128.31
X86.2Y-120.11
X86.21Y-76.58
X86.21Y-108.59
X87.85Y-132.73
X87.94Y-123.74
X90.31Y-82.08
X90.31Y-114.09
X91.23Y-121.18
X91.25Y-122.02
X91.69Y-137.82
X92.09Y-139.02
X92.1Y-144.41
X92.29Y-129.62
X92.59Y-130.63
X92.69Y-136.142
X93.15Y-124.53
X93.21Y-80.68
X93.21Y-112.69
X93.462Y-136.352
X93.99Y-129.62
X94.81Y-62.305
X94.81Y-94.315
X95.164Y-139.785
X95.2Y-138.81
X95.4Y-142.01
X95.59Y-126.92
X95.68Y-125.86
X95.69Y-121.82
X96.49Y-135.61
X96.74Y-126.92
X96.75Y-125.86
X97.31Y-62.18
X97.31Y-82.18
X97.31Y-94.19
X97.31Y-114.19
X97.61Y-65.18
X97.61Y-97.19
X97.69Y-126.42
X98.01Y-74.38
X98.01Y-106.39
X98.04Y-134.8
X99.02Y-134.85
X99.61Y-65.18
X99.61Y-97.19
X101.81Y-68.78
X101.81Y-100.79
X102.115Y-125.745
X102.28Y-136.09
X102.99Y-120.51
X103.015Y-131.98
X103.165Y-129.317
X103.49Y-128.52
X104.06Y-77.03
X104.06Y-109.04
X104.11Y-82.18
X104.11Y-114.19
X104.21Y-64.58
X104.21Y-96.59
X105.91Y-79.68
X105.91Y-111.69
X106.61Y-80.78
X106.61Y-112.79
X107.91Y-60.58
X107.91Y-92.59
X108.11Y-64.78
X108.11Y-96.79
X108.21Y-74.18
X108.21Y-106.19
X109.41Y-63.98
X109.41Y-95.99
X109.51Y-57.88
X109.51Y-59.78
X109.51Y-89.89
X109.51Y-91.79
X110.41Y-79.88
X110.41Y-111.89
X111.71Y-67.78
X111.71Y-99.79
X113.51Y-73.18
X113.51Y-105.19
X115.31Y-72.18
X115.31Y-73.08
X115.31Y-104.19
X115.31Y-105.09
X116.31Y-65.68
X116.31Y-97.69
X117.11Y-71.98
X117.11Y-103.99
X117.21Y-72.88
X117.21Y-104.89
X117.31Y-67.68
X117.31Y-99.69
X118.11Y-74.38
X118.11Y-106.39
X119.21Y-63.28
X119.21Y-95.29
X120.11Y-72.38
X120.11Y-80.78
X120.11Y-104.39
X120.11Y-112.79
X120.51Y-73.98
X120.51Y-79.58
X120.51Y-105.99
X120.51Y-111.59
X121.11Y-67.78
X121.11Y-99.79
X122.11Y-72.38
X122.11Y-104.39
X122.21Y-74.08
X122.21Y-106.09
X122.49Y-124.52
X122.71Y-79.68
X122.71Y-111.69
X123.19Y-123.52
X124.11Y-74.08
X124.11Y-106.09
X124.39Y-121.72
X124.79Y-123.97
X125.593Y-121.095
X126.19Y-141.12
X126.69Y-143.72
X126.892Y-79.505
X126.892Y-111.515
X127.43Y-120.98
X127.59Y-138.92
X128.09Y-126.92
X128.09Y-136.72
X128.81Y-73.88
X128.81Y-105.89
X129.51Y-82.18
X129.51Y-114.19
X132.49Y-121.82
X133.19Y-130.12
X133.91Y-67.28
X133.91Y-77.08
X133.91Y-99.29
X133.91Y-109.09
X134.41Y-65.08
X134.41Y-97.09
X134.57Y-83.02
X134.57Y-115.03
X135.108Y-124.495
X135.31Y-60.28
X135.31Y-92.29
X135.81Y-62.88
X135.81Y-94.89
X136.407Y-82.905
X136.407Y-114.915
X137.21Y-80.03
X137.21Y-112.04
X137.61Y-82.28
X137.61Y-114.29
X137.89Y-129.92
X138.81Y-80.48
X138.81Y-112.49
X139.29Y-124.32
X139.51Y-79.48
X139.51Y-111.49
X139.79Y-129.92
X139.89Y-131.62
X140.89Y-136.22
X141.49Y-124.42
X141.49Y-130.02
X141.89Y-123.22
X141.89Y-131.62
X142.79Y-140.72
X143.89Y-129.62
X144.69Y-136.32
X144.79Y-131.12
X144.89Y-132.02
X145.69Y-138.32
X146.69Y-130.92
X146.69Y-131.82
X148.49Y-130.82
X150.29Y-136.22
X151.59Y-124.12
X152.49Y-144.22
X152.49Y-146.12
X152.59Y-140.02
X153.79Y-129.82
X153.89Y-139.22
X154.09Y-143.42
X155.39Y-123.22
X156.09Y-124.32
X157.79Y-139.42
X157.89Y-121.82
X157.94Y-126.97
X158.51Y-75.48
X158.51Y-107.49
X158.835Y-74.683
X158.835Y-106.693
X158.985Y-72.02
X158.985Y-104.03
X159.01Y-83.49
X159.01Y-115.5
X159.72Y-67.91
X159.72Y-99.92
X159.885Y-78.255
X159.885Y-110.265
X160.19Y-135.22
X162.39Y-138.82
X162.98Y-69.15
X162.98Y-101.16
X163.96Y-69.2
X163.96Y-101.21
X163.99Y-129.62
X164.31Y-77.58
X164.31Y-109.59
X164.39Y-138.82
X164.69Y-121.82
X164.69Y-141.82
X165.25Y-78.14
X165.25Y-110.15
X165.26Y-77.08
X165.26Y-109.09
X165.51Y-68.39
X165.51Y-100.4
X166.31Y-82.18
X166.31Y-114.19
X166.32Y-78.14
X166.32Y-110.15
X166.41Y-77.08
X166.41Y-109.09
X166.6Y-61.99
X166.6Y-94.
X166.8Y-65.19
X166.8Y-97.2
X166.836Y-64.215
X166.836Y-96.225
X167.19Y-141.695
X168.01Y-74.38
X168.01Y-106.39
X168.538Y-67.648
X168.538Y-99.658
X168.79Y-123.32
X168.85Y-79.47
X168.85Y-111.48
X169.31Y-67.858
X169.31Y-99.868
X169.41Y-73.37
X169.41Y-105.38
X169.71Y-74.38
X169.71Y-106.39
X169.9Y-59.59
X169.9Y-91.6
X169.91Y-64.98
X169.91Y-96.99
X170.31Y-66.18
X170.31Y-98.19
X170.75Y-81.98
X170.75Y-113.99
X170.77Y-82.82
X170.77Y-114.83
X171.69Y-121.92
X174.06Y-80.26
X174.06Y-112.27
X174.15Y-71.27
X174.15Y-103.28
X175.79Y-127.42
X175.8Y-83.89
X175.8Y-115.9
X175.9Y-75.69
X175.9Y-107.7
X176.39Y-134.12
X176.39Y-141.22
X176.7Y-73.19
X176.7Y-105.2
X176.8Y-67.19
X176.8Y-99.2
X176.974Y-69.992
X176.974Y-102.002
X177.6Y-70.49
X177.6Y-102.5
X178.09Y-126.82
X178.298Y-72.89
X178.298Y-104.9
X178.33Y-79.471
X178.33Y-111.481
X178.343Y-70.124
X178.343Y-102.134
X179.1Y-67.09
X179.1Y-99.1
X179.24Y-73.07
X179.24Y-105.08
X179.79Y-134.92
T2
X106.39Y-126.96
X106.39Y-128.96
X106.39Y-130.96
X106.39Y-132.96
X106.39Y-134.96
X106.39Y-136.96
X106.39Y-138.96
X106.39Y-140.96
X110.29Y-124.96
X112.29Y-124.96
X114.29Y-124.96
X116.29Y-124.96
X118.29Y-124.96
X120.29Y-124.96
X124.39Y-126.96
X124.39Y-128.96
X124.39Y-130.96
X124.39Y-132.96
X124.39Y-134.96
X124.39Y-136.96
X124.39Y-138.96
X124.39Y-140.96
X137.61Y-63.04
X137.61Y-65.04
X137.61Y-67.04
X137.61Y-69.04
X137.61Y-71.04
X137.61Y-73.04
X137.61Y-75.04
X137.61Y-77.04
X137.61Y-95.05
X137.61Y-97.05
X137.61Y-99.05
X137.61Y-101.05
X137.61Y-103.05
X137.61Y-105.05
X137.61Y-107.05
X137.61Y-109.05
X141.71Y-79.04
X141.71Y-111.05
X143.71Y-79.04
X143.71Y-111.05
X145.71Y-79.04
X145.71Y-111.05
X147.71Y-79.04
X147.71Y-111.05
X149.71Y-79.04
X149.71Y-111.05
X151.71Y-79.04
X151.71Y-111.05
X155.61Y-63.04
X155.61Y-65.04
X155.61Y-67.04
X155.61Y-69.04
X155.61Y-71.04
X155.61Y-73.04
X155.61Y-75.04
X155.61Y-77.04
X155.61Y-95.05
X155.61Y-97.05
X155.61Y-99.05
X155.61Y-101.05
X155.61Y-103.05
X155.61Y-105.05
X155.61Y-107.05
X155.61Y-109.05
T4
X96.39Y-129.22
X96.39Y-131.76
X103.89Y-143.78
X103.89Y-146.32
X114.41Y-58.98
X114.41Y-90.99
X116.95Y-58.98
X116.95Y-90.99
X119.49Y-58.98
X119.49Y-90.99
X122.03Y-58.98
X122.03Y-90.99
X130.39Y-126.08
X130.39Y-128.62
X130.39Y-131.16
X130.39Y-133.7
X130.39Y-136.24
X130.39Y-138.78
X130.39Y-141.32
X131.61Y-62.68
X131.61Y-65.22
X131.61Y-67.76
X131.61Y-70.3
X131.61Y-72.84
X131.61Y-75.38
X131.61Y-77.92
X131.61Y-94.69
X131.61Y-97.23
X131.61Y-99.77
X131.61Y-102.31
X131.61Y-104.85
X131.61Y-107.39
X131.61Y-109.93
X139.97Y-145.02
X142.51Y-145.02
X145.05Y-145.02
X147.59Y-145.02
X158.11Y-57.68
X158.11Y-60.22
X158.11Y-89.69
X158.11Y-92.23
X165.61Y-72.24
X165.61Y-74.78
X165.61Y-104.25
X165.61Y-106.79
T5
X91.33Y-64.31
X91.33Y-75.71
X91.33Y-96.32
X91.33Y-107.72
X170.67Y-128.29
X170.67Y-139.69
T3
X83.512Y-143.307G85X83.512Y-143.307
G05
X83.512Y-145.313G85X83.512Y-145.313
G05
X85.494Y-141.808G85X85.494Y-141.808
G05
X85.494Y-146.812G85X85.494Y-146.812
G05
X87.5Y-142.316G85X87.5Y-142.316
G05
X87.5Y-144.31G85X87.5Y-144.31
G05
X87.5Y-146.304G85X87.5Y-146.304
G05
X174.5Y-57.696G85X174.5Y-57.696
G05
X174.5Y-59.69G85X174.5Y-59.69
G05
X174.5Y-61.684G85X174.5Y-61.684
G05
X174.5Y-89.706G85X174.5Y-89.706
G05
X174.5Y-91.7G85X174.5Y-91.7
G05
X174.5Y-93.694G85X174.5Y-93.694
G05
X176.506Y-57.188G85X176.506Y-57.188
G05
X176.506Y-62.192G85X176.506Y-62.192
G05
X176.506Y-89.198G85X176.506Y-89.198
G05
X176.506Y-94.202G85X176.506Y-94.202
G05
X178.488Y-58.687G85X178.488Y-58.687
G05
X178.488Y-60.693G85X178.488Y-60.693
G05
X178.488Y-90.697G85X178.488Y-90.697
G05
X178.488Y-92.703G85X178.488Y-92.703
G05
T0
M30
