G04 #@! TF.FileFunction,Profile,NP*
%FSLAX46Y46*%
G04 Gerber Fmt 4.6, Leading zero omitted, Abs format (unit mm)*
G04 Created by KiCad (PCBNEW (2016-05-02 BZR 6765, Git 2f87409)-product) date 2016-05-10 21:50:54*
%MOMM*%
%LPD*%
G01*
G04 APERTURE LIST*
%ADD10C,0.100000*%
%ADD11C,0.150000*%
G04 APERTURE END LIST*
D10*
D11*
X156200000Y-87000000D02*
X154610000Y-86990000D01*
X160200000Y-87000000D02*
X161610000Y-86990000D01*
X81000000Y-119000000D02*
X91000000Y-119000000D01*
X91000000Y-117000000D02*
X81000000Y-117000000D01*
X95000000Y-117000000D02*
X106910000Y-117000000D01*
X128400000Y-119000000D02*
X95000000Y-119000000D01*
X132400000Y-119000000D02*
X133590000Y-119000000D01*
X156400000Y-117000000D02*
X132400000Y-117000000D01*
X156400000Y-119000000D02*
X155090000Y-118990000D01*
X160400000Y-119000000D02*
X175200000Y-119000000D01*
X175200000Y-117000000D02*
X160400000Y-117000000D01*
X179200000Y-117000000D02*
X181000000Y-117000000D01*
X181000000Y-119000000D02*
X179200000Y-119000000D01*
X181000000Y-87000000D02*
X178200000Y-87000000D01*
X174200000Y-87000000D02*
X172210000Y-86990000D01*
X95000000Y-87000000D02*
X128400000Y-87000000D01*
X81000000Y-87000000D02*
X91000000Y-87000000D01*
X91000000Y-85000000D02*
X81000000Y-85000000D01*
X95000000Y-85000000D02*
X106910000Y-84980000D01*
X156200000Y-85000000D02*
X132110000Y-85000000D01*
X174200000Y-85000000D02*
X160200000Y-85000000D01*
X181000000Y-85000000D02*
X178200000Y-85000000D01*
X178200000Y-85000000D02*
G75*
G03X178200000Y-87000000I0J-1000000D01*
G01*
X174200000Y-87000000D02*
G75*
G03X174200000Y-85000000I0J1000000D01*
G01*
X179200000Y-117000000D02*
G75*
G03X179200000Y-119000000I0J-1000000D01*
G01*
X175200000Y-119000000D02*
G75*
G03X175200000Y-117000000I0J1000000D01*
G01*
X160400000Y-117000000D02*
G75*
G03X160400000Y-119000000I0J-1000000D01*
G01*
X156400000Y-119000000D02*
G75*
G03X156400000Y-117000000I0J1000000D01*
G01*
X160200000Y-85000000D02*
G75*
G03X160200000Y-87000000I0J-1000000D01*
G01*
X156200000Y-87000000D02*
G75*
G03X156200000Y-85000000I0J1000000D01*
G01*
X131100000Y-87000000D02*
X131100000Y-86000000D01*
X132100000Y-85000000D02*
G75*
G03X131100000Y-86000000I0J-1000000D01*
G01*
X128400000Y-87000000D02*
G75*
G03X128400000Y-85000000I0J1000000D01*
G01*
X132400000Y-117000000D02*
G75*
G03X132400000Y-119000000I0J-1000000D01*
G01*
X128400000Y-119000000D02*
G75*
G03X128400000Y-117000000I0J1000000D01*
G01*
X95000000Y-117000000D02*
G75*
G03X95000000Y-119000000I0J-1000000D01*
G01*
X95000000Y-85000000D02*
G75*
G03X95000000Y-87000000I0J-1000000D01*
G01*
X91000000Y-87000000D02*
G75*
G03X91000000Y-85000000I0J1000000D01*
G01*
X91000000Y-119000000D02*
G75*
G03X91000000Y-117000000I0J1000000D01*
G01*
X138610098Y-77980000D02*
G75*
G03X139620000Y-78080000I509902J0D01*
G01*
X153619710Y-78078058D02*
G75*
G03X154610000Y-77980000I490290J98058D01*
G01*
X161610000Y-59580000D02*
G75*
G03X162610000Y-59580000I500000J0D01*
G01*
X167810000Y-59580000D02*
G75*
G03X168810000Y-59580000I500000J0D01*
G01*
X106910000Y-83880000D02*
X106910000Y-84980000D01*
X127410000Y-82880000D02*
X107910000Y-82880000D01*
X128410000Y-83880000D02*
X128400000Y-85000000D01*
X128410000Y-83880000D02*
G75*
G03X127410000Y-82880000I-1000000J0D01*
G01*
X107910000Y-82880000D02*
G75*
G03X106910000Y-83880000I0J-1000000D01*
G01*
X132110000Y-54980000D02*
X138610000Y-54980000D01*
X131110000Y-60180000D02*
X131110000Y-54980000D01*
X132110000Y-60180000D02*
X132110000Y-54980000D01*
X131110000Y-60180000D02*
G75*
G03X132110000Y-60180000I500000J0D01*
G01*
X161610000Y-54980000D02*
X154610000Y-54980000D01*
X138610000Y-77980000D02*
X138610000Y-54980000D01*
X153620000Y-78080000D02*
X139620000Y-78080000D01*
X154610000Y-54980000D02*
X154610000Y-77980000D01*
X168810000Y-54980000D02*
X171210000Y-54980000D01*
X161610000Y-59580000D02*
X161610000Y-54980000D01*
X167810000Y-59580000D02*
X162610000Y-59580000D01*
X168810000Y-54980000D02*
X168810000Y-59580000D01*
X181000000Y-54990000D02*
X172210000Y-54980000D01*
X172210000Y-58280000D02*
X172210000Y-54980000D01*
X171210000Y-58280000D02*
X171210000Y-54980000D01*
X172210000Y-66480000D02*
X172210000Y-60880000D01*
X171210000Y-60880000D02*
X171210000Y-66480000D01*
X171310000Y-71580000D02*
X171310000Y-79280000D01*
X172310000Y-79280000D02*
X172310000Y-71580000D01*
X171310000Y-79280000D02*
G75*
G03X172310000Y-79280000I500000J0D01*
G01*
X172310000Y-71580000D02*
G75*
G03X171310000Y-71580000I-500000J0D01*
G01*
X171210000Y-58280000D02*
G75*
G03X172210000Y-58280000I500000J0D01*
G01*
X172210000Y-60880000D02*
G75*
G03X171210000Y-60880000I-500000J0D01*
G01*
X171210000Y-66480000D02*
G75*
G03X172210000Y-66480000I500000J0D01*
G01*
X87810000Y-75480000D02*
G75*
G03X88810000Y-76480000I1000000J0D01*
G01*
X93810000Y-76480000D02*
G75*
G03X94810000Y-75480000I0J1000000D01*
G01*
X94810000Y-64480000D02*
G75*
G03X93810000Y-63480000I-1000000J0D01*
G01*
X88810000Y-63480000D02*
G75*
G03X87810000Y-64480000I0J-1000000D01*
G01*
X87810000Y-75480000D02*
X87810000Y-64480000D01*
X93810000Y-76480000D02*
X88810000Y-76480000D01*
X94810000Y-64480000D02*
X94810000Y-75480000D01*
X88810000Y-63480000D02*
X93810000Y-63480000D01*
X81000000Y-54990000D02*
X81000000Y-84990000D01*
X131110000Y-54980000D02*
X81000000Y-54990000D01*
X181000000Y-84990000D02*
X181000000Y-54990000D01*
X138610098Y-109990000D02*
G75*
G03X139620000Y-110090000I509902J0D01*
G01*
X153619710Y-110088058D02*
G75*
G03X154610000Y-109990000I490290J98058D01*
G01*
X161610000Y-91590000D02*
G75*
G03X162610000Y-91590000I500000J0D01*
G01*
X167810000Y-91590000D02*
G75*
G03X168810000Y-91590000I500000J0D01*
G01*
X106910000Y-115890000D02*
X106910000Y-117000000D01*
X127410000Y-114890000D02*
X107910000Y-114890000D01*
X128410000Y-115890000D02*
X128410000Y-116990000D01*
X128410000Y-115890000D02*
G75*
G03X127410000Y-114890000I-1000000J0D01*
G01*
X107910000Y-114890000D02*
G75*
G03X106910000Y-115890000I0J-1000000D01*
G01*
X132110000Y-86990000D02*
X138610000Y-86990000D01*
X131110000Y-92190000D02*
X131110000Y-86990000D01*
X132110000Y-92190000D02*
X132110000Y-86990000D01*
X131110000Y-92190000D02*
G75*
G03X132110000Y-92190000I500000J0D01*
G01*
X138610000Y-109990000D02*
X138610000Y-86990000D01*
X153620000Y-110090000D02*
X139620000Y-110090000D01*
X154610000Y-86990000D02*
X154610000Y-109990000D01*
X168810000Y-86990000D02*
X171210000Y-86990000D01*
X161610000Y-91590000D02*
X161610000Y-86990000D01*
X167810000Y-91590000D02*
X162610000Y-91590000D01*
X168810000Y-86990000D02*
X168810000Y-91590000D01*
X172210000Y-90290000D02*
X172210000Y-86990000D01*
X171210000Y-90290000D02*
X171210000Y-86990000D01*
X172210000Y-98490000D02*
X172210000Y-92890000D01*
X171210000Y-92890000D02*
X171210000Y-98490000D01*
X171310000Y-103590000D02*
X171310000Y-111290000D01*
X172310000Y-111290000D02*
X172310000Y-103590000D01*
X171310000Y-111290000D02*
G75*
G03X172310000Y-111290000I500000J0D01*
G01*
X172310000Y-103590000D02*
G75*
G03X171310000Y-103590000I-500000J0D01*
G01*
X171210000Y-90290000D02*
G75*
G03X172210000Y-90290000I500000J0D01*
G01*
X172210000Y-92890000D02*
G75*
G03X171210000Y-92890000I-500000J0D01*
G01*
X171210000Y-98490000D02*
G75*
G03X172210000Y-98490000I500000J0D01*
G01*
X87810000Y-107490000D02*
G75*
G03X88810000Y-108490000I1000000J0D01*
G01*
X93810000Y-108490000D02*
G75*
G03X94810000Y-107490000I0J1000000D01*
G01*
X94810000Y-96490000D02*
G75*
G03X93810000Y-95490000I-1000000J0D01*
G01*
X88810000Y-95490000D02*
G75*
G03X87810000Y-96490000I0J-1000000D01*
G01*
X87810000Y-107490000D02*
X87810000Y-96490000D01*
X93810000Y-108490000D02*
X88810000Y-108490000D01*
X94810000Y-96490000D02*
X94810000Y-107490000D01*
X88810000Y-95490000D02*
X93810000Y-95490000D01*
X81000000Y-87000000D02*
X81000000Y-117000000D01*
X181000000Y-117000000D02*
X181000000Y-87000000D01*
X123389902Y-126020000D02*
G75*
G03X122380000Y-125920000I-509902J0D01*
G01*
X108380290Y-125921942D02*
G75*
G03X107390000Y-126020000I-490290J-98058D01*
G01*
X100390000Y-144420000D02*
G75*
G03X99390000Y-144420000I-500000J0D01*
G01*
X94190000Y-144420000D02*
G75*
G03X93190000Y-144420000I-500000J0D01*
G01*
X155090000Y-120120000D02*
X155090000Y-118990000D01*
X134590000Y-121120000D02*
X154090000Y-121120000D01*
X133590000Y-120120000D02*
X133590000Y-119000000D01*
X133590000Y-120120000D02*
G75*
G03X134590000Y-121120000I1000000J0D01*
G01*
X154090000Y-121120000D02*
G75*
G03X155090000Y-120120000I0J1000000D01*
G01*
X129890000Y-149020000D02*
X123390000Y-149020000D01*
X130890000Y-143820000D02*
X130890000Y-149020000D01*
X129890000Y-143820000D02*
X129890000Y-149020000D01*
X130890000Y-143820000D02*
G75*
G03X129890000Y-143820000I-500000J0D01*
G01*
X100390000Y-149020000D02*
X107390000Y-149020000D01*
X123390000Y-126020000D02*
X123390000Y-149020000D01*
X108380000Y-125920000D02*
X122380000Y-125920000D01*
X107390000Y-149020000D02*
X107390000Y-126020000D01*
X93190000Y-149020000D02*
X90790000Y-149020000D01*
X100390000Y-144420000D02*
X100390000Y-149020000D01*
X94190000Y-144420000D02*
X99390000Y-144420000D01*
X93190000Y-149020000D02*
X93190000Y-144420000D01*
X81000000Y-149010000D02*
X89790000Y-149020000D01*
X89790000Y-145720000D02*
X89790000Y-149020000D01*
X90790000Y-145720000D02*
X90790000Y-149020000D01*
X89790000Y-137520000D02*
X89790000Y-143120000D01*
X90790000Y-143120000D02*
X90790000Y-137520000D01*
X90690000Y-132420000D02*
X90690000Y-124720000D01*
X89690000Y-124720000D02*
X89690000Y-132420000D01*
X90690000Y-124720000D02*
G75*
G03X89690000Y-124720000I-500000J0D01*
G01*
X89690000Y-132420000D02*
G75*
G03X90690000Y-132420000I500000J0D01*
G01*
X90790000Y-145720000D02*
G75*
G03X89790000Y-145720000I-500000J0D01*
G01*
X89790000Y-143120000D02*
G75*
G03X90790000Y-143120000I500000J0D01*
G01*
X90790000Y-137520000D02*
G75*
G03X89790000Y-137520000I-500000J0D01*
G01*
X174190000Y-128520000D02*
G75*
G03X173190000Y-127520000I-1000000J0D01*
G01*
X168190000Y-127520000D02*
G75*
G03X167190000Y-128520000I0J-1000000D01*
G01*
X167190000Y-139520000D02*
G75*
G03X168190000Y-140520000I1000000J0D01*
G01*
X173190000Y-140520000D02*
G75*
G03X174190000Y-139520000I0J1000000D01*
G01*
X174190000Y-128520000D02*
X174190000Y-139520000D01*
X168190000Y-127520000D02*
X173190000Y-127520000D01*
X167190000Y-139520000D02*
X167190000Y-128520000D01*
X173190000Y-140520000D02*
X168190000Y-140520000D01*
X181000000Y-149010000D02*
X181000000Y-119010000D01*
X130890000Y-149020000D02*
X181000000Y-149010000D01*
X81000000Y-119010000D02*
X81000000Y-149010000D01*
M02*
